<?xml version="1.0" encoding="UTF-8" standalone="no"?>
<svg width="146px" height="45px" viewBox="0 0 146 45" version="1.1" xmlns="http://www.w3.org/2000/svg" xmlns:xlink="http://www.w3.org/1999/xlink" xmlns:sketch="http://www.bohemiancoding.com/sketch/ns">
    <!-- Generator: Sketch 3.2.2 (9983) - http://www.bohemiancoding.com/sketch -->
    <title>app_store_btn_blue</title>
    <desc>Created with Sketch.</desc>
    <defs></defs>
    <g id="Page-1" stroke="none" stroke-width="1" fill="none" fill-rule="evenodd" sketch:type="MSPage">
        <g id="Explore" sketch:type="MSArtboardGroup" transform="translate(-355.000000, -1855.000000)">
            <g id="Group" sketch:type="MSLayerGroup" transform="translate(200.000000, 1570.000000)">
                <g id="app_store_btn_blue-+-google_play_btn_blue" transform="translate(155.000000, 285.000000)" sketch:type="MSShapeGroup">
                    <g id="app_store_btn_blue">
                        <rect id="Rectangle-142" stroke="#FFFFFF" x="0.75257732" y="0.75" width="144.494845" height="43.5" rx="5"></rect>
                        <g id="Group" transform="translate(12.843986, 6.525000)" fill="#FFFFFF">
                            <path d="M19.4029819,14.9901 C19.3719423,11.4850875 22.2275885,9.7798875 22.3581691,9.7005 C20.7408971,7.3047375 18.2341792,6.9774 17.3532958,6.9513 C15.2479523,6.7261875 13.2057585,8.2312875 12.1332857,8.2312875 C11.0394062,8.2312875 9.38788362,6.97305 7.60792119,7.010025 C5.31741031,7.0459125 3.17460527,8.393325 1.99938053,10.485675 C-0.425992211,14.7519375 1.38286919,21.021375 3.70656037,24.4698375 C4.86894112,26.158725 6.22719267,28.04445 8.00501443,27.9781125 C9.74430424,27.90525 10.3939959,26.8514625 12.4929173,26.8514625 C14.5725727,26.8514625 15.1826621,27.9781125 16.9958048,27.9357 C18.8624641,27.90525 20.0376889,26.2392 21.159397,24.5350875 C22.5026639,22.5993375 23.0421113,20.69295 23.063518,20.595075 C23.0196344,20.57985 19.4383029,19.1911125 19.4029819,14.9901 L19.4029819,14.9901 L19.4029819,14.9901 Z" id="Shape"></path>
                            <path d="M15.9779189,4.682775 C16.9133892,3.4941375 17.5534479,1.877025 17.3757727,0.2359875 C16.0218025,0.2968875 14.328537,1.18755 13.3534644,2.3500875 C12.4907766,3.3745125 11.7201375,5.0536125 11.9192192,6.6326625 C13.4401613,6.7479375 15.0017759,5.852925 15.9779189,4.682775 L15.9779189,4.682775 L15.9779189,4.682775 Z" id="Shape"></path>
                            <path d="M44.573984,27.7356 L42.1432596,27.7356 L40.8117663,23.4845625 L36.1836499,23.4845625 L34.9153063,27.7356 L32.5488018,27.7356 L37.1341049,13.26315 L39.9662039,13.26315 L44.573984,27.7356 L44.573984,27.7356 Z M40.4103918,21.7010625 L39.206268,17.922 C39.0788985,17.5359375 38.8402144,16.6267875 38.4880751,15.1956375 L38.4452619,15.1956375 C38.3050483,15.8111625 38.0792082,16.7203125 37.7688119,17.922 L36.5860948,21.7010625 L40.4103918,21.7010625 L40.4103918,21.7010625 Z" id="Shape"></path>
                            <path d="M56.3658337,22.38945 C56.3658337,24.16425 55.8938172,25.567125 54.9497842,26.5969875 C54.1042218,27.51375 53.0542259,27.9715875 51.8008669,27.9715875 C50.447967,27.9715875 49.4761054,27.4778625 48.8842117,26.4904125 L48.8413984,26.4904125 L48.8413984,31.987725 L46.5594502,31.987725 L46.5594502,20.7353625 C46.5594502,19.6195875 46.5305512,18.47445 46.4748939,17.29995 L48.4817668,17.29995 L48.6091363,18.9540375 L48.6519496,18.9540375 C49.4129558,17.7077625 50.5678442,17.0857125 52.1176852,17.0857125 C53.3293013,17.0857125 54.3407652,17.571825 55.1499363,18.5451375 C55.9612481,19.5195375 56.3658337,20.8006125 56.3658337,22.38945 L56.3658337,22.38945 L56.3658337,22.38945 Z M54.0410722,22.474275 C54.0410722,21.45855 53.8163024,20.621175 53.3646222,19.96215 C52.8711991,19.27485 52.2086635,18.9312 51.3780857,18.9312 C50.815091,18.9312 50.3034722,19.1226 49.8464403,19.4999625 C49.3883381,19.8805875 49.0886451,20.377575 48.9484316,20.9931 C48.8777897,21.2802 48.8424687,21.5151 48.8424687,21.699975 L48.8424687,23.439975 C48.8424687,24.19905 49.0715198,24.8395875 49.529622,25.362675 C49.9877242,25.8857625 50.5828289,26.1467625 51.3149361,26.1467625 C52.1744128,26.1467625 52.8433704,25.8096375 53.3218089,25.1375625 C53.8013178,24.4644 54.0410722,23.577 54.0410722,22.474275 L54.0410722,22.474275 L54.0410722,22.474275 Z" id="Shape"></path>
                            <path d="M68.17909,22.38945 C68.17909,24.16425 67.7070735,25.567125 66.7619702,26.5969875 C65.9174781,27.51375 64.8674822,27.9715875 63.6141233,27.9715875 C62.2612234,27.9715875 61.2893617,27.4778625 60.6985384,26.4904125 L60.6557251,26.4904125 L60.6557251,31.987725 L58.3737769,31.987725 L58.3737769,20.7353625 C58.3737769,19.6195875 58.3448779,18.47445 58.2892206,17.29995 L60.2960935,17.29995 L60.423463,18.9540375 L60.4662763,18.9540375 C61.2262121,17.7077625 62.3811006,17.0857125 63.9320119,17.0857125 C65.1425576,17.0857125 66.1540215,17.571825 66.9653333,18.5451375 C67.7734341,19.5195375 68.17909,20.8006125 68.17909,22.38945 L68.17909,22.38945 L68.17909,22.38945 Z M65.8543285,22.474275 C65.8543285,21.45855 65.6284884,20.621175 65.1768082,19.96215 C64.6833851,19.27485 64.0229901,18.9312 63.191342,18.9312 C62.627277,18.9312 62.1167285,19.1226 61.6586263,19.4999625 C61.2005242,19.8805875 60.9019015,20.377575 60.761688,20.9931 C60.6921164,21.2802 60.6557251,21.5151 60.6557251,21.699975 L60.6557251,23.439975 C60.6557251,24.19905 60.8847762,24.8395875 61.3407377,25.362675 C61.7988399,25.884675 62.3939446,26.1467625 63.1281924,26.1467625 C63.9876692,26.1467625 64.6566268,25.8096375 65.1350653,25.1375625 C65.6145741,24.4644 65.8543285,23.577 65.8543285,22.474275 L65.8543285,22.474275 L65.8543285,22.474275 Z" id="Shape"></path>
                            <path d="M81.3869892,23.67705 C81.3869892,24.9081 80.9663487,25.9096875 80.1218566,26.6829 C79.1938786,27.5278875 77.9019876,27.9498375 76.2419024,27.9498375 C74.7091867,27.9498375 73.4804454,27.6496875 72.5503267,27.0483 L73.0790708,25.1158125 C74.0809017,25.7313375 75.1801329,26.0401875 76.3778346,26.0401875 C77.2373113,26.0401875 77.906269,25.8422625 78.3868481,25.4485875 C78.8652866,25.0549125 79.1039707,24.5263875 79.1039707,23.8673625 C79.1039707,23.2801125 78.9070296,22.7853 78.512077,22.3840125 C78.1192651,21.982725 77.4631514,21.6097125 76.5469471,21.264975 C74.0530731,20.3199375 72.8072064,18.93555 72.8072064,17.115075 C72.8072064,15.92535 73.2439019,14.9498625 74.1183633,14.1907875 C74.9896137,13.430625 76.1519945,13.0510875 77.6055056,13.0510875 C78.9016779,13.0510875 79.9784321,13.28055 80.8379088,13.7383875 L80.2674218,15.6284625 C79.4646726,15.1847625 78.5570309,14.9629125 77.5412857,14.9629125 C76.7385365,14.9629125 76.1113219,15.1641 75.6617824,15.5643 C75.2818144,15.9220875 75.0912953,16.358175 75.0912953,16.8747375 C75.0912953,17.4467625 75.3085727,17.919825 75.7452683,18.29175 C76.1252362,18.6354 76.8156005,19.007325 77.8174314,19.4086125 C79.0429617,19.90995 79.9431111,20.4961125 80.5221608,21.1681875 C81.0990699,21.8380875 81.3869892,22.67655 81.3869892,23.67705 L81.3869892,23.67705 L81.3869892,23.67705 Z" id="Shape"></path>
                            <path d="M88.9317608,19.03995 L86.4164802,19.03995 L86.4164802,24.1066125 C86.4164802,25.3953 86.8595977,26.0391 87.7479734,26.0391 C88.15577,26.0391 88.493995,26.0032125 88.761578,25.9314375 L88.8247276,27.6921 C88.3751881,27.8628375 87.7832944,27.94875 87.0501168,27.94875 C86.1488971,27.94875 85.4446186,27.6692625 84.9362108,27.111375 C84.4299436,26.5524 84.1752046,25.614975 84.1752046,24.2980125 L84.1752046,19.037775 L82.6767395,19.037775 L82.6767395,17.297775 L84.1752046,17.297775 L84.1752046,15.3870375 L86.4164802,14.6997375 L86.4164802,17.297775 L88.9317608,17.297775 L88.9317608,19.03995 L88.9317608,19.03995 Z" id="Shape"></path>
                            <path d="M100.280493,22.4318625 C100.280493,24.035925 99.8288128,25.3528875 98.9275931,26.38275 C97.9824898,27.4430625 96.7280605,27.9715875 95.1643052,27.9715875 C93.6572774,27.9715875 92.4574351,27.463725 91.5626373,26.448 C90.6678396,25.432275 90.2204408,24.1501125 90.2204408,22.604775 C90.2204408,20.9876625 90.6806836,19.6630875 91.6043803,18.633225 C92.5259363,17.602275 93.7696623,17.0868 95.3334176,17.0868 C96.8404454,17.0868 98.0531317,17.5946625 98.9682658,18.611475 C99.8437975,19.5978375 100.280493,20.8713 100.280493,22.4318625 L100.280493,22.4318625 L100.280493,22.4318625 Z M97.9129182,22.5069 C97.9129182,21.5444625 97.7106254,20.71905 97.3006882,20.0306625 C96.8222497,19.1976375 96.1383074,18.7822125 95.2520724,18.7822125 C94.3347977,18.7822125 93.6380115,19.198725 93.159573,20.0306625 C92.7496357,20.7201375 92.547343,21.5586 92.547343,22.5504 C92.547343,23.5128375 92.7496357,24.33825 93.159573,25.02555 C93.6529961,25.858575 94.34229,26.274 95.2317361,26.274 C96.1029865,26.274 96.7869288,25.849875 97.2803519,25.0038 C97.7009924,24.3023625 97.9129182,23.46825 97.9129182,22.5069 L97.9129182,22.5069 L97.9129182,22.5069 Z" id="Shape"></path>
                            <path d="M107.697895,19.3390125 C107.472055,19.2966 107.23123,19.27485 106.978632,19.27485 C106.175883,19.27485 105.55509,19.5826125 105.118395,20.199225 C104.738427,20.742975 104.547907,21.430275 104.547907,22.2600375 L104.547907,27.7356 L102.26703,27.7356 L102.288436,20.586375 C102.288436,19.3836 102.259537,18.2884875 102.20281,17.3010375 L104.190416,17.3010375 L104.273902,19.2976875 L104.337052,19.2976875 C104.577877,18.611475 104.957845,18.059025 105.478026,17.6446875 C105.986434,17.271675 106.535514,17.0857125 107.127408,17.0857125 C107.338263,17.0857125 107.528783,17.1009375 107.697895,17.128125 L107.697895,19.3390125 L107.697895,19.3390125 Z" id="Shape"></path>
                            <path d="M117.903512,22.02405 C117.903512,22.439475 117.876754,22.78965 117.820027,23.0756625 L110.974182,23.0756625 C111.00094,24.1066125 111.331673,24.89505 111.96745,25.4388 C112.544359,25.9249125 113.290381,26.1685125 114.206585,26.1685125 C115.22019,26.1685125 116.144957,26.0043 116.976605,25.6747875 L117.334096,27.2842875 C116.362234,27.7149375 115.214838,27.929175 113.890837,27.929175 C112.298183,27.929175 111.048035,27.45285 110.138252,26.5012875 C109.230611,25.549725 108.77572,24.2719125 108.77572,22.6689375 C108.77572,21.095325 109.198501,19.7848875 110.045134,18.7398 C110.931369,17.624025 112.12907,17.0661375 113.636098,17.0661375 C115.116367,17.0661375 116.237005,17.624025 116.998011,18.7398 C117.600608,19.6261125 117.903512,20.7223125 117.903512,22.02405 L117.903512,22.02405 L117.903512,22.02405 Z M115.727527,21.4226625 C115.742512,20.7353625 115.593736,20.1415875 115.28441,19.64025 C114.889457,18.9953625 114.282579,18.6734625 113.465915,18.6734625 C112.719894,18.6734625 112.113015,18.98775 111.649562,19.6185 C111.269594,20.1198375 111.043753,20.721225 110.974182,21.421575 L115.727527,21.421575 L115.727527,21.4226625 L115.727527,21.4226625 Z" id="Shape"></path>
                            <path d="M39.6558076,4.3597875 C39.6558076,5.639775 39.2779803,6.6033 38.5233961,7.2503625 C37.8244692,7.8474 36.8312009,8.1464625 35.5446616,8.1464625 C34.9067436,8.1464625 34.3608742,8.1181875 33.9038424,8.0616375 L33.9038424,1.067925 C34.5000174,0.97005 35.1422167,0.920025 35.835792,0.920025 C37.0613223,0.920025 37.985019,1.1908125 38.6079523,1.7323875 C39.3058089,2.34465 39.6558076,3.2200875 39.6558076,4.3597875 L39.6558076,4.3597875 L39.6558076,4.3597875 Z M38.4730905,4.391325 C38.4730905,3.5615625 38.2568834,2.925375 37.8244692,2.481675 C37.392055,2.0390625 36.760559,1.8172125 35.9289109,1.8172125 C35.5757013,1.8172125 35.2749379,1.8411375 35.0255505,1.8911625 L35.0255505,7.20795 C35.1636234,7.2297 35.4162218,7.2394875 35.7833457,7.2394875 C36.6417521,7.2394875 37.3042877,6.996975 37.7709526,6.51195 C38.2376174,6.026925 38.4730905,5.32005 38.4730905,4.391325 L38.4730905,4.391325 L38.4730905,4.391325 Z" id="Shape"></path>
                            <path d="M45.9268838,5.4777375 C45.9268838,6.266175 45.7053251,6.91215 45.2622076,7.418925 C44.7976834,7.9398375 44.1822424,8.19975 43.4137439,8.19975 C42.673074,8.19975 42.083321,7.9507125 41.6434144,7.4504625 C41.2045782,6.9513 40.9851601,6.3216375 40.9851601,5.5625625 C40.9851601,4.7686875 41.2110002,4.117275 41.6648211,3.6115875 C42.1186419,3.1059 42.7287313,2.8525125 43.4972298,2.8525125 C44.2378997,2.8525125 44.8330044,3.10155 45.2836142,3.6007125 C45.7117471,4.0857375 45.9268838,4.7121375 45.9268838,5.4777375 L45.9268838,5.4777375 L45.9268838,5.4777375 Z M44.7634328,5.5147125 C44.7634328,5.04165 44.6628215,4.6360125 44.4626694,4.2978 C44.2271963,3.8889 43.8921824,3.68445 43.4565572,3.68445 C43.0059473,3.68445 42.663441,3.8889 42.4279679,4.2978 C42.2267455,4.6360125 42.1272046,5.048175 42.1272046,5.535375 C42.1272046,6.0084375 42.2278158,6.414075 42.4279679,6.7522875 C42.6709333,7.1611875 43.0091583,7.3656375 43.4458538,7.3656375 C43.8739867,7.3656375 44.210071,7.157925 44.4519661,6.7414125 C44.6596105,6.396675 44.7634328,5.987775 44.7634328,5.5147125 L44.7634328,5.5147125 L44.7634328,5.5147125 Z" id="Shape"></path>
                            <path d="M54.3354135,2.9569125 L52.7566735,8.0833875 L51.7291546,8.0833875 L51.0751817,5.857275 C50.9092802,5.3015625 50.7744183,4.7491125 50.6695258,4.2010125 L50.6491895,4.2010125 C50.5517892,4.7643375 50.4169274,5.3157 50.2435336,5.857275 L49.548888,8.0833875 L48.5095954,8.0833875 L47.0250447,2.9569125 L48.1777924,2.9569125 L48.7482795,5.394 C48.8863523,5.970375 48.9998076,6.5195625 49.0907858,7.0393875 L49.1111221,7.0393875 C49.194608,6.6109125 49.3326809,6.0649875 49.5274813,5.404875 L50.2435336,2.958 L51.1575973,2.958 L51.8436802,5.352675 C52.0095817,5.9366625 52.1444435,6.4989 52.2482658,7.040475 L52.2793054,7.040475 C52.355299,6.5130375 52.4698245,5.9508 52.6218117,5.352675 L53.2340417,2.958 L54.3354135,2.958 L54.3354135,2.9569125 L54.3354135,2.9569125 Z" id="Shape"></path>
                            <path d="M60.1505283,8.0833875 L59.0288202,8.0833875 L59.0288202,5.1471375 C59.0288202,4.2423375 58.6905952,3.7899375 58.0120046,3.7899375 C57.6791313,3.7899375 57.4104779,3.9139125 57.2017631,4.16295 C56.995189,4.4119875 56.8902964,4.7056125 56.8902964,5.04165 L56.8902964,8.0823 L55.7685883,8.0823 L55.7685883,4.421775 C55.7685883,3.97155 55.754674,3.4832625 55.7279157,2.9547375 L56.7136916,2.9547375 L56.7661379,3.756225 L56.7971775,3.756225 C56.9277581,3.5071875 57.1225585,3.30165 57.3783679,3.1374375 C57.6823423,2.9460375 58.0227079,2.84925 58.3951835,2.84925 C58.8661297,2.84925 59.2578712,3.003675 59.5693379,3.3136125 C59.9567982,3.69315 60.1505283,4.2597375 60.1505283,5.0122875 L60.1505283,8.0833875 L60.1505283,8.0833875 Z" id="Shape"></path>
                            <path d="M63.2437883,8.0833875 L62.1231505,8.0833875 L62.1231505,0.60465 L63.2437883,0.60465 L63.2437883,8.0833875 L63.2437883,8.0833875 Z" id="Shape"></path>
                            <path d="M69.8477379,5.4777375 C69.8477379,6.266175 69.6261792,6.91215 69.1830616,7.418925 C68.7185375,7.9398375 68.1020261,8.19975 67.3345979,8.19975 C66.5928577,8.19975 66.0031047,7.9507125 65.5642685,7.4504625 C65.1254323,6.9513 64.9060142,6.3216375 64.9060142,5.5625625 C64.9060142,4.7686875 65.1318543,4.117275 65.5856751,3.6115875 C66.039496,3.1059 66.6495853,2.8525125 67.4170135,2.8525125 C68.1587537,2.8525125 68.7527881,3.10155 69.2044683,3.6007125 C69.6326011,4.0857375 69.8477379,4.7121375 69.8477379,5.4777375 L69.8477379,5.4777375 L69.8477379,5.4777375 Z M68.6832165,5.5147125 C68.6832165,5.04165 68.5826053,4.6360125 68.3824532,4.2978 C68.1480504,3.8889 67.8119661,3.68445 67.3774112,3.68445 C66.925731,3.68445 66.5832247,3.8889 66.348822,4.2978 C66.1475995,4.6360125 66.0480586,5.048175 66.0480586,5.535375 C66.0480586,6.0084375 66.1486699,6.414075 66.348822,6.7522875 C66.5917874,7.1611875 66.9300124,7.3656375 67.3667079,7.3656375 C67.7948408,7.3656375 68.1298548,7.157925 68.3717498,6.7414125 C68.5804646,6.396675 68.6832165,5.987775 68.6832165,5.5147125 L68.6832165,5.5147125 L68.6832165,5.5147125 Z" id="Shape"></path>
                            <path d="M75.2764628,8.0833875 L74.2692802,8.0833875 L74.1857943,7.492875 L74.1547546,7.492875 C73.8101077,7.9637625 73.3188252,8.19975 72.6809072,8.19975 C72.2046094,8.19975 71.8192898,8.0442375 71.5292298,7.7353875 C71.2659281,7.4548125 71.1342772,7.105725 71.1342772,6.6913875 C71.1342772,6.0649875 71.3911569,5.587575 71.9081274,5.256975 C72.4240275,4.926375 73.1497127,4.7643375 74.0841127,4.77195 L74.0841127,4.67625 C74.0841127,4.0009125 73.7351844,3.6637875 73.0362575,3.6637875 C72.538553,3.6637875 72.0997168,3.791025 71.7208192,4.043325 L71.4928385,3.295125 C71.961644,3.0004125 72.5406937,2.8525125 73.2235656,2.8525125 C74.5422149,2.8525125 75.2036802,3.5593875 75.2036802,4.9731375 L75.2036802,6.8610375 C75.2036802,7.37325 75.2282978,7.7810625 75.2764628,8.0833875 L75.2764628,8.0833875 L75.2764628,8.0833875 Z M74.1119414,6.3216375 L74.1119414,5.531025 C72.8746373,5.509275 72.2559853,5.8540125 72.2559853,6.56415 C72.2559853,6.831675 72.3266273,7.031775 72.4711221,7.1655375 C72.615617,7.2993 72.7997141,7.3656375 73.0191322,7.3656375 C73.2653086,7.3656375 73.49543,7.28625 73.7052151,7.1285625 C73.9160706,6.9697875 74.0455808,6.7686 74.0937457,6.5217375 C74.1055194,6.466275 74.1119414,6.39885 74.1119414,6.3216375 L74.1119414,6.3216375 L74.1119414,6.3216375 Z" id="Shape"></path>
                            <path d="M81.650291,8.0833875 L80.654882,8.0833875 L80.6024357,7.26015 L80.5713961,7.26015 C80.2535074,7.88655 79.7119194,8.19975 78.9509132,8.19975 C78.3429645,8.19975 77.8366974,7.9572375 77.4353228,7.4722125 C77.0339482,6.9871875 76.8337961,6.357525 76.8337961,5.5843125 C76.8337961,4.75455 77.0510735,4.082475 77.4877691,3.569175 C77.9105503,3.090675 78.4285911,2.851425 79.0451024,2.851425 C79.7226227,2.851425 80.1967798,3.0830625 80.4665036,3.547425 L80.4879102,3.547425 L80.4879102,0.60465 L81.6106887,0.60465 L81.6106887,6.7022625 C81.6106887,7.201425 81.6235326,7.6614375 81.650291,8.0833875 L81.650291,8.0833875 L81.650291,8.0833875 Z M80.4879102,5.9214375 L80.4879102,5.0666625 C80.4879102,4.9187625 80.4772069,4.7991375 80.4568706,4.7077875 C80.393721,4.4337375 80.2577888,4.2031875 80.0512147,4.017225 C79.8424999,3.8312625 79.5909718,3.7377375 79.3009118,3.7377375 C78.8824119,3.7377375 78.5548903,3.9063 78.3140655,4.2445125 C78.0753814,4.582725 77.9544339,5.0144625 77.9544339,5.5419 C77.9544339,6.048675 78.0689595,6.45975 78.2990809,6.7762125 C78.5420463,7.1133375 78.8695679,7.2819 79.2795052,7.2819 C79.6476994,7.2819 79.9420408,7.1416125 80.1657402,6.85995 C80.3819473,6.6000375 80.4879102,6.2868375 80.4879102,5.9214375 L80.4879102,5.9214375 L80.4879102,5.9214375 Z" id="Shape"></path>
                            <path d="M91.2436784,5.4777375 C91.2436784,6.266175 91.0221196,6.91215 90.5790021,7.418925 C90.1144779,7.9398375 89.5001072,8.19975 88.7305384,8.19975 C87.9909388,8.19975 87.4011858,7.9507125 86.9602089,7.4504625 C86.5213727,6.9513 86.3019546,6.3216375 86.3019546,5.5625625 C86.3019546,4.7686875 86.5277947,4.117275 86.9816156,3.6115875 C87.4354364,3.1059 88.0455258,2.8525125 88.8150946,2.8525125 C89.5546942,2.8525125 90.1508692,3.10155 90.6004087,3.6007125 C91.0285416,4.0857375 91.2436784,4.7121375 91.2436784,5.4777375 L91.2436784,5.4777375 L91.2436784,5.4777375 Z M90.0812976,5.5147125 C90.0812976,5.04165 89.9806864,4.6360125 89.7805342,4.2978 C89.5439908,3.8889 89.2100472,3.68445 88.7733517,3.68445 C88.3238121,3.68445 87.9813058,3.8889 87.7447624,4.2978 C87.54354,4.6360125 87.4439991,5.048175 87.4439991,5.535375 C87.4439991,6.0084375 87.5446103,6.414075 87.7447624,6.7522875 C87.9877278,7.1611875 88.3259528,7.3656375 88.7626483,7.3656375 C89.1907812,7.3656375 89.5279359,7.157925 89.7698309,6.7414125 C89.976405,6.396675 90.0812976,5.987775 90.0812976,5.5147125 L90.0812976,5.5147125 L90.0812976,5.5147125 Z" id="Shape"></path>
                            <path d="M97.2750002,8.0833875 L96.1543624,8.0833875 L96.1543624,5.1471375 C96.1543624,4.2423375 95.8161375,3.7899375 95.1364765,3.7899375 C94.8036032,3.7899375 94.5349498,3.9139125 94.3273054,4.16295 C94.1196609,4.4119875 94.0158387,4.7056125 94.0158387,5.04165 L94.0158387,8.0823 L92.8930603,8.0823 L92.8930603,4.421775 C92.8930603,3.97155 92.8802163,3.4832625 92.853458,2.9547375 L93.8381636,2.9547375 L93.8906099,3.756225 L93.9216495,3.756225 C94.0533003,3.5071875 94.2481008,3.30165 94.5028399,3.1374375 C94.8078845,2.9460375 95.1471798,2.84925 95.5207258,2.84925 C95.9906016,2.84925 96.3823432,3.003675 96.6938099,3.3136125 C97.0823404,3.69315 97.2750002,4.2597375 97.2750002,5.0122875 L97.2750002,8.0833875 L97.2750002,8.0833875 Z" id="Shape"></path>
                            <path d="M104.824053,3.8106 L103.58889,3.8106 L103.58889,6.300975 C103.58889,6.9339 103.808308,7.2503625 104.242863,7.2503625 C104.444085,7.2503625 104.611057,7.2329625 104.742708,7.197075 L104.771607,8.0616375 C104.550048,8.1464625 104.258918,8.188875 103.900356,8.188875 C103.457239,8.188875 103.112592,8.05185 102.863205,7.7778 C102.612747,7.50375 102.488588,7.04265 102.488588,6.3955875 L102.488588,3.8106 L101.751129,3.8106 L101.751129,2.9569125 L102.488588,2.9569125 L102.488588,2.0173125 L103.587819,1.6801875 L103.587819,2.955825 L104.822983,2.955825 L104.822983,3.8106 L104.824053,3.8106 L104.824053,3.8106 Z" id="Shape"></path>
                            <path d="M110.762256,8.0833875 L109.639478,8.0833875 L109.639478,5.1688875 C109.639478,4.24995 109.301253,3.7899375 108.623732,3.7899375 C108.103551,3.7899375 107.748201,4.056375 107.5534,4.58925 C107.52022,4.7012625 107.500954,4.8382875 107.500954,4.9992375 L107.500954,8.0823 L106.380316,8.0823 L106.380316,0.60465 L107.500954,0.60465 L107.500954,3.6942375 L107.522361,3.6942375 C107.87557,3.132 108.381837,2.851425 109.037951,2.851425 C109.502475,2.851425 109.886724,3.00585 110.191769,3.3157875 C110.571737,3.70185 110.762256,4.27605 110.762256,5.035125 L110.762256,8.0833875 L110.762256,8.0833875 Z" id="Shape"></path>
                            <path d="M116.887767,5.2776375 C116.887767,5.4820875 116.872783,5.6539125 116.846024,5.7942 L113.48197,5.7942 C113.496955,6.300975 113.657505,6.6870375 113.968971,6.9545625 C114.25368,7.1938125 114.620804,7.3134375 115.070343,7.3134375 C115.568048,7.3134375 116.021868,7.2329625 116.430735,7.070925 L116.60627,7.862625 C116.127831,8.0736 115.564837,8.1790875 114.913004,8.1790875 C114.131662,8.1790875 113.516221,7.945275 113.070963,7.47765 C112.623564,7.010025 112.402005,6.3825375 112.402005,5.5951875 C112.402005,4.821975 112.608579,4.178175 113.024938,3.664875 C113.459493,3.116775 114.047106,2.842725 114.788846,2.842725 C115.514531,2.842725 116.065752,3.116775 116.438228,3.664875 C116.738991,4.099875 116.887767,4.6381875 116.887767,5.2776375 L116.887767,5.2776375 L116.887767,5.2776375 Z M115.817435,4.982925 C115.825998,4.6447125 115.752145,4.3532625 115.600158,4.1074875 C115.405357,3.791025 115.108875,3.63225 114.707501,3.63225 C114.341447,3.63225 114.042824,3.786675 113.814844,4.0966125 C113.628606,4.343475 113.518362,4.6381875 113.48197,4.982925 L115.817435,4.982925 L115.817435,4.982925 Z" id="Shape"></path>
                        </g>
                    </g>
                </g>
            </g>
        </g>
    </g>
</svg>