<?xml version="1.0" encoding="UTF-8" standalone="no"?>
<svg width="146px" height="45px" viewBox="0 0 146 45" version="1.1" xmlns="http://www.w3.org/2000/svg" xmlns:xlink="http://www.w3.org/1999/xlink" xmlns:sketch="http://www.bohemiancoding.com/sketch/ns">
    <!-- Generator: Sketch 3.2.2 (9983) - http://www.bohemiancoding.com/sketch -->
    <title>google_play_btn_blue</title>
    <desc>Created with Sketch.</desc>
    <defs></defs>
    <g id="Page-1" stroke="none" stroke-width="1" fill="none" fill-rule="evenodd" sketch:type="MSPage">
        <g id="Explore" sketch:type="MSArtboardGroup" transform="translate(-523.000000, -1855.000000)">
            <g id="Group" sketch:type="MSLayerGroup" transform="translate(200.000000, 1570.000000)">
                <g id="app_store_btn_blue-+-google_play_btn_blue" transform="translate(155.000000, 285.000000)" sketch:type="MSShapeGroup">
                    <g id="google_play_btn_blue" transform="translate(168.000000, 0.000000)">
                        <rect id="Rectangle-141" stroke="#FFFFFF" x="0.75257732" y="0.75" width="144.494845" height="43.5" rx="5"></rect>
                        <path d="M94.8206538,30.95286 L93.8966336,31.8362 C93.6830899,31.9551 93.4706911,32.09314 93.2588649,32.19116 C92.6170888,32.48638 91.964435,32.56062 91.3844892,32.56062 C90.7673308,32.56062 89.7998002,32.52002 88.8128046,31.79676 C87.4416593,30.8183 86.8422484,29.1363 86.8422484,27.67064 C86.8422484,24.63608 89.2805398,23.1478 91.2694161,23.1478 C91.964435,23.1478 92.6789191,23.32412 93.2588649,23.69648 C94.2241055,24.3426 94.4737169,25.18302 94.6122627,25.6331 L90.0705943,27.492 L88.5832308,27.60974 C89.064706,30.09736 90.7261106,31.54446 92.5621285,31.54446 C93.4792787,31.54446 94.1599851,31.24112 94.7845862,30.9285 C94.7845862,30.9285 94.9099644,30.86238 94.8206538,30.95286 L94.8206538,30.95286 L94.8206538,30.95286 Z M92.0806532,26.00372 C92.4493454,25.868 92.6411339,25.75084 92.6411339,25.47824 C92.6411339,24.6964 91.7680664,23.79334 90.7261106,23.79334 C89.9543761,23.79334 88.5053703,24.40234 88.5053703,26.51702 C88.5053703,26.84704 88.5443006,27.19852 88.5637656,27.55 L92.0806532,26.00372 L92.0806532,26.00372 Z" id="Fill-3" fill="#FFFFFF"></path>
                        <path d="M85.3245423,30.80148 C85.3245423,31.56186 85.4585079,31.68018 86.0934141,31.73992 C86.424321,31.77936 86.7540829,31.79676 87.0804097,31.8362 L86.3659256,32.26714 L82.9612488,32.26714 C83.4078013,31.68018 83.4845168,31.62218 83.4845168,31.23068 L83.4845168,30.79394 L83.4770742,19.15682 L81.9736806,19.15682 L83.4209689,18.45038 L86.1838696,18.45038 C85.5850312,18.80186 85.4058376,19.01588 85.3291222,19.70086 L85.3245423,30.80148" id="Fill-4" fill="#FFFFFF"></path>
                        <path d="M80.0443446,24.10828 C80.4880347,24.47774 81.4137725,25.2619 81.4137725,26.74902 C81.4137725,28.19844 80.6071153,28.88168 79.7935882,29.52838 C79.5439767,29.783 79.2520001,30.05908 79.2520001,30.48654 C79.2520001,30.91922 79.5439767,31.15412 79.7540854,31.32928 L80.4519669,31.87506 C81.3004168,32.60064 82.0738687,33.26648 82.0738687,34.6173 C82.0738687,36.45822 80.3151387,38.3148 76.9917572,38.3148 C74.1922163,38.3148 72.8388186,36.96398 72.8388186,35.51572 C72.8388186,34.81102 73.185183,33.81284 74.3278995,33.12902 C75.5255764,32.3872 77.1480507,32.28802 78.0171105,32.23002 C77.7457441,31.87506 77.4360198,31.50328 77.4360198,30.8966 C77.4360198,30.56484 77.5344904,30.36706 77.6295259,30.1339 C77.4182722,30.1542 77.2053009,30.17508 77.0117948,30.17508 C74.9628057,30.17508 73.8046315,28.62648 73.8046315,27.1005 C73.8046315,26.20034 74.2099639,25.20158 75.0423836,24.47774 C76.1438799,23.55902 77.4572024,23.40068 78.5008758,23.40068 L82.4820635,23.40068 L81.2443115,24.10828 L80.0443446,24.10828 L80.0443446,24.10828 Z M78.6754893,32.79726 C78.5169059,32.77638 78.4218703,32.77638 78.2306543,32.77638 C78.0554682,32.77638 77.0117948,32.81466 76.2034202,33.08958 C75.7757603,33.24792 74.5397257,33.71598 74.5397257,35.10624 C74.5397257,36.4936 75.8742309,37.4941 77.9386777,37.4941 C79.7935882,37.4941 80.7782938,36.59336 80.7782938,35.38058 C80.7782938,34.3824 80.1410976,33.85576 78.6754893,32.79726 L78.6754893,32.79726 L78.6754893,32.79726 Z M79.2308175,29.0783 C79.67737,28.62648 79.7163002,28.0024 79.7163002,27.64802 C79.7163002,26.24036 78.8878881,24.04796 77.2820163,24.04796 C76.781076,24.04796 76.2383429,24.30258 75.9303362,24.6964 C75.6034368,25.10414 75.5055388,25.6331 75.5055388,26.14176 C75.5055388,27.45256 76.2600981,29.6264 77.919785,29.6264 C78.4041227,29.6264 78.9251007,29.38802 79.2308175,29.0783 L79.2308175,29.0783 L79.2308175,29.0783 Z" id="Fill-5" fill="#FFFFFF"></path>
                        <path d="M68.0664314,32.52002 C64.9955238,32.52002 63.3524394,30.09736 63.3524394,27.9038 C63.3524394,25.34078 65.4180313,23.1478 68.3561179,23.1478 C71.1963067,23.1478 72.9750743,25.40052 72.9750743,27.76576 C72.9750743,30.0759 71.2169168,32.52002 68.0664314,32.52002 L68.0664314,32.52002 L68.0664314,32.52002 Z M70.4823951,30.93662 C70.9495578,30.31022 71.0629134,29.52838 71.0629134,28.76626 C71.0629134,27.0425 70.2522488,23.75506 67.8563227,23.75506 C67.2191265,23.75506 66.5773503,24.00736 66.1147677,24.41916 C65.3602084,25.10414 65.2256702,25.96486 65.2256702,26.80934 C65.2256702,28.74306 66.1691555,31.93248 68.5106939,31.93248 C69.2663982,31.93248 70.03756,31.56186 70.4823951,30.93662 L70.4823951,30.93662 L70.4823951,30.93662 Z" id="Fill-6" fill="#FFFFFF"></path>
                        <path d="M57.7848452,32.52002 C54.7133653,32.52002 53.0731434,30.09736 53.0731434,27.9038 C53.0731434,25.34078 55.1393077,23.1478 58.0762495,23.1478 C60.9147205,23.1478 62.6917707,25.40052 62.6917707,27.76576 C62.6917707,30.0759 60.9359032,32.52002 57.7848452,32.52002 L57.7848452,32.52002 L57.7848452,32.52002 Z M60.2013815,30.93662 C60.6651091,30.31022 60.7807549,29.52838 60.7807549,28.76626 C60.7807549,27.0425 59.9678002,23.75506 57.574164,23.75506 C56.9346779,23.75506 56.2997718,24.00736 55.8360442,24.41916 C55.0803398,25.10414 54.9463741,25.96486 54.9463741,26.80934 C54.9463741,28.74306 55.893867,31.93248 58.2313977,31.93248 C58.9853846,31.93248 59.7554015,31.56186 60.2013815,30.93662 L60.2013815,30.93662 L60.2013815,30.93662 Z" id="Fill-7" fill="#FFFFFF"></path>
                        <path d="M51.8451238,31.84084 L49.2551191,32.44172 C48.2057206,32.60934 47.2633803,32.75666 46.2655071,32.75666 C41.2698436,32.75666 39.3662703,29.03132 39.3662703,26.11566 C39.3662703,22.55504 42.0633332,19.25368 46.6822894,19.25368 C47.6595526,19.25368 48.5996029,19.39926 49.4560678,19.6359 C50.813473,20.02276 51.4483791,20.49836 51.8451238,20.77734 L50.3405853,22.22502 L49.7062517,22.36886 L50.1585293,21.63864 C49.5459508,21.03254 48.4198368,19.91372 46.2826822,19.91372 C43.4253184,19.91372 41.2698436,22.11424 41.2698436,25.32686 C41.2698436,28.77728 43.7310352,32.02296 47.6784451,32.02296 C48.8383367,32.02296 49.4354577,31.7869 49.9776182,31.5665 L49.9776182,28.6085 L47.2427701,28.75756 L48.6923484,27.96876 L52.5304103,27.96876 L52.0609576,28.42638 C51.9344344,28.53542 51.9172593,28.57254 51.8817641,28.7187 C51.8628715,28.88574 51.8451238,29.41702 51.8451238,29.60378 L51.8451238,31.84084" id="Fill-8" fill="#FFFFFF"></path>
                        <path d="M100.389393,31.03638 L100.389393,36.02148 L99.41213,36.02148 L99.41213,23.3363 L100.389393,23.3363 L100.389393,24.78108 C101.026017,23.84728 102.189343,23.1072 103.540451,23.1072 C105.963857,23.1072 107.596064,24.96958 107.596064,27.91772 C107.596064,30.84614 105.963857,32.74738 103.540451,32.74738 C102.264914,32.74738 101.122197,32.08096 100.389393,31.03638 L100.389393,31.03638 L100.389393,31.03638 Z M106.546093,27.91772 C106.546093,25.69574 105.402804,24.00098 103.37557,24.00098 C102.116635,24.00098 100.912661,25.00322 100.389393,25.87728 L100.389393,29.93786 C100.912661,30.81366 102.116635,31.85244 103.37557,31.85244 C105.402804,31.85244 106.546093,30.14318 106.546093,27.91772 L106.546093,27.91772 L106.546093,27.91772 Z" id="Fill-9" fill="#FFFFFF"></path>
                        <path d="M108.930569,19.83368 L109.90726,19.83368 L109.90726,32.51886 L108.930569,32.51886 L108.930569,19.83368 L108.930569,19.83368 Z" id="Fill-10" fill="#FFFFFF"></path>
                        <path d="M120.872988,35.20136 C121.081951,35.2959 121.438621,35.3539 121.664759,35.3539 C122.262453,35.3539 122.678663,35.10624 123.052507,34.2316 L123.765273,32.59542 L119.915762,23.3363 L121.005808,23.3363 L124.308007,31.36002 L127.578146,23.3363 L128.683649,23.3363 L123.98855,34.53842 C123.50135,35.69262 122.734768,36.24768 121.681935,36.24768 C121.365913,36.24768 120.94913,36.19084 120.705244,36.11486 L120.872988,35.20136" id="Fill-11" fill="#FFFFFF"></path>
                        <path d="M118.018486,32.4916 C117.953221,32.17318 117.903986,31.89246 117.867918,31.65814 C117.838147,31.4244 117.820973,31.18544 117.820973,30.94242 C117.486058,31.44064 117.011453,31.85534 116.405172,32.18188 C115.798319,32.51074 115.221808,32.67198 114.43118,32.67198 C113.479108,32.67198 112.740006,32.43476 112.212731,31.95336 C111.687173,31.47254 111.422676,30.8212 111.422676,29.99702 C111.422676,29.174 111.80568,28.50584 112.5694,27.99486 C113.333119,27.48156 114.320115,27.22636 115.541837,27.22636 L117.820973,27.22636 L117.820973,26.0855 C117.820973,25.42836 117.599987,24.91158 117.158586,24.5369 C116.715468,24.16164 116.093731,23.97198 115.287645,23.97198 C114.550834,23.97198 113.95314,24.1454 113.498001,24.48296 C113.046867,24.82748 112.819584,25.25436 112.819584,25.76882 L111.819421,25.76882 L111.798811,25.71952 C111.762743,25.02584 112.075903,24.41742 112.741723,23.89194 C113.404683,23.36704 114.273169,23.10314 115.342033,23.10314 C116.407462,23.10314 117.269652,23.36298 117.919443,23.8815 C118.568662,24.3948 118.894416,25.13662 118.894416,26.10638 L118.894416,30.63618 C118.894416,30.96156 118.909874,31.27592 118.949948,31.58216 C118.991169,31.88898 119.057007,32.19522 119.1446,32.4916 L118.018486,32.4916 L118.018486,32.4916 Z M114.550834,31.77008 C115.380963,31.77008 115.977512,31.58216 116.587228,31.21038 C117.192936,30.84092 117.605139,30.35894 117.820973,29.77546 L117.820973,28.01226 L115.53096,28.01226 C114.656175,28.01226 113.931958,28.2083 113.362317,28.60386 C112.791531,28.99826 112.502417,29.4756 112.502417,30.03066 C112.502417,30.5544 112.685618,30.97316 113.04973,31.29042 C113.414988,31.61116 113.91421,31.77008 114.550834,31.77008 L114.550834,31.77008 L114.550834,31.77008 Z" id="Fill-12" fill="#FFFFFF"></path>
                        <path d="M29.1496051,22.7285199 L15.2904026,15.214075 C14.8974318,15.0020667 14.5349893,14.9527476 14.2413979,15.0430592 L25.5933819,26.235944 L29.1496051,22.7285199 L29.1496051,22.7285199 Z M29.1677921,29.7606619 L33.8990305,27.1954257 C34.8583988,26.6734113 34.8583988,25.8240971 33.8990305,25.3033638 L29.1502545,22.7285199 L25.5933819,26.235944 L29.1677921,29.7606619 L29.1677921,29.7606619 Z M14.2407484,15.0430592 C13.8191979,15.1730825 13.5463918,15.5938965 13.5463918,16.2305619 L13.5489899,36.2682275 C13.5489899,36.8978473 13.8133521,37.3122563 14.2225613,37.4506062 L25.5933819,26.2378656 L14.2407484,15.0430592 L14.2407484,15.0430592 Z M14.2225613,37.4506062 C14.5181013,37.5492444 14.8876887,37.5031278 15.2904026,37.2853549 L29.1658436,29.7606619 L25.5933819,26.2378656 L14.2225613,37.4506062 L14.2225613,37.4506062 Z" id="path-2" fill="#FFFFFF"></path>
                        <path d="M39.3422252,9.4279 C39.3422252,7.47852 40.7717658,6.22456 42.5499609,6.22456 C43.7413402,6.22456 44.5199446,6.8005 45.0059999,7.50578 L44.1352225,8.01676 C43.8054605,7.55218 43.2278048,7.19084 42.5499609,7.19084 C41.340834,7.19084 40.4420039,8.11884 40.4420039,9.4279 C40.4420039,10.71782 41.340834,11.66496 42.5499609,11.66496 C43.1734169,11.66496 43.7230201,11.37728 43.9978217,11.10816 L43.9978217,10.15174 L42.1652387,10.15174 L42.1652387,9.19532 L45.0609602,9.19532 L45.0609602,11.5072 C44.4655569,12.18522 43.6039394,12.63994 42.5499609,12.63994 C40.7717658,12.63994 39.3422252,11.36858 39.3422252,9.4279" id="Fill-18" fill="#FFFFFF"></path>
                        <path d="M46.3868777,12.5193 L46.3868777,6.32664 L50.5747392,6.32664 L50.5747392,7.28364 L47.4586039,7.28364 L47.4586039,8.88038 L50.5106188,8.88038 L50.5106188,9.83622 L47.4586039,9.83622 L47.4586039,11.56288 L50.5747392,11.56288 L50.5747392,12.5193 L46.3868777,12.5193" id="Fill-19" fill="#FFFFFF"></path>
                        <path d="M53.5414511,12.5193 L53.5414511,7.28364 L51.690548,7.28364 L51.690548,6.32664 L56.4646527,6.32664 L56.4646527,7.28364 L54.6137497,7.28364 L54.6137497,12.5193 L53.5414511,12.5193" id="Fill-20" fill="#FFFFFF"></path>
                        <path d="M60.1910764,6.32664 L61.2628025,6.32664 L61.2628025,12.5193 L60.1910764,12.5193 L60.1910764,6.32664 L60.1910764,6.32664 Z" id="Fill-21" fill="#FFFFFF"></path>
                        <path d="M64.2489796,12.5193 L64.2489796,7.28364 L62.3980766,7.28364 L62.3980766,6.32664 L67.1721812,6.32664 L67.1721812,7.28364 L65.3212782,7.28364 L65.3212782,12.5193 L64.2489796,12.5193" id="Fill-22" fill="#FFFFFF"></path>
                        <path d="M70.6329635,9.4279 C70.6329635,7.58002 71.9245309,6.22456 73.7582587,6.22456 C75.5811092,6.22456 76.8829816,7.58002 76.8829816,9.4279 C76.8829816,11.2752 75.5811092,12.63066 73.7582587,12.63066 C71.9245309,12.63066 70.6329635,11.2752 70.6329635,9.4279 L70.6329635,9.4279 L70.6329635,9.4279 Z M75.7832029,9.4279 C75.7832029,8.14668 74.9857057,7.19084 73.7582587,7.19084 C72.5205067,7.19084 71.7327422,8.14668 71.7327422,9.4279 C71.7327422,10.69926 72.5205067,11.66496 73.7582587,11.66496 C74.9857057,11.66496 75.7832029,10.69926 75.7832029,9.4279 L75.7832029,9.4279 L75.7832029,9.4279 Z" id="Fill-23" fill="#FFFFFF"></path>
                        <path d="M82.396188,12.5193 L79.2067723,8.091 L79.2067723,12.5193 L78.1350463,12.5193 L78.1350463,6.32664 L79.234825,6.32664 L82.3595479,10.61632 L82.3595479,6.32664 L83.4318465,6.32664 L83.4318465,12.5193 L82.396188,12.5193" id="Fill-24" fill="#FFFFFF"></path>
                    </g>
                </g>
            </g>
        </g>
    </g>
</svg>