<?xml version="1.0" encoding="UTF-8" standalone="no"?>
<svg width="48px" height="48px" viewBox="0 0 48 48" version="1.1" xmlns="http://www.w3.org/2000/svg" xmlns:xlink="http://www.w3.org/1999/xlink" xmlns:sketch="http://www.bohemiancoding.com/sketch/ns">
    <!-- Generator: Sketch 3.2.2 (9983) - http://www.bohemiancoding.com/sketch -->
    <title>ic_fullscreen_exit</title>
    <desc>Created with Sketch.</desc>
    <defs></defs>
    <g id="Page-1" stroke="none" stroke-width="1" fill="none" fill-rule="evenodd" sketch:type="MSPage">
        <g id="ic_fullscreen_exit_48px" sketch:type="MSLayerGroup">
            <path d="M10,32 L16,32 L16,38 L20,38 L20,28 L10,28 L10,32 L10,32 Z M16,16 L10,16 L10,20 L20,20 L20,10 L16,10 L16,16 L16,16 Z M28,38 L32,38 L32,32 L38,32 L38,28 L28,28 L28,38 L28,38 Z M32,16 L32,10 L28,10 L28,20 L38,20 L38,16 L32,16 L32,16 Z" id="Shape" fill="#FFFFFF" sketch:type="MSShapeGroup"></path>
            <path d="M0,0 L48,0 L48,48 L0,48 L0,0 Z" id="Shape" sketch:type="MSShapeGroup"></path>
        </g>
    </g>
</svg>