<?xml version="1.0" encoding="UTF-8" standalone="no"?>
<svg width="48px" height="48px" viewBox="0 0 48 48" version="1.1" xmlns="http://www.w3.org/2000/svg" xmlns:xlink="http://www.w3.org/1999/xlink" xmlns:sketch="http://www.bohemiancoding.com/sketch/ns">
    <!-- Generator: Sketch 3.2.2 (9983) - http://www.bohemiancoding.com/sketch -->
    <title>ic_fullscreen</title>
    <desc>Created with Sketch.</desc>
    <defs></defs>
    <g id="Page-1" stroke="none" stroke-width="1" fill="none" fill-rule="evenodd" sketch:type="MSPage">
        <g id="ic_fullscreen_48px" sketch:type="MSLayerGroup">
            <path d="M14,28 L10,28 L10,38 L20,38 L20,34 L14,34 L14,28 L14,28 Z M10,20 L14,20 L14,14 L20,14 L20,10 L10,10 L10,20 L10,20 Z M34,34 L28,34 L28,38 L38,38 L38,28 L34,28 L34,34 L34,34 Z M28,10 L28,14 L34,14 L34,20 L38,20 L38,10 L28,10 L28,10 Z" id="Shape" fill="#FFFFFF" sketch:type="MSShapeGroup"></path>
            <path d="M0,0 L48,0 L48,48 L0,48 L0,0 Z" id="Shape" sketch:type="MSShapeGroup"></path>
        </g>
    </g>
</svg>