<?xml version="1.0" encoding="UTF-8"?> <svg xmlns="http://www.w3.org/2000/svg" width="60" height="60" viewBox="0 0 60 60"> <g fill="none"> <rect width="60" height="60" fill="#FFFFFF" rx="30"></rect> <g transform="translate(6 6)"> <path fill="#EE2737" d="M8 0L8 7.4361148C8 8.32763354 8.09282561 8.65091978 8.2671327 8.9768457 8.4414398 9.30277163 8.69722837 9.5585602 9.0231543 9.7328673 9.34908022 9.90717439 9.67236646 10 10.5638852 10L18 10 18 11.4361148C18 12.3276335 17.9071744 12.6509198 17.7328673 12.9768457 17.5585602 13.3027716 17.3027716 13.5585602 16.9768457 13.7328673 16.6509198 13.9071744 16.3276335 14 15.4361148 14L2.5638852 14C1.67236646 14 1.34908022 13.9071744 1.0231543 13.7328673.697228371 13.5585602.441439796 13.3027716.267132704 12.9768457.0928256111 12.6509198 4.01235366e-17 12.3276335-6.90560205e-17 11.4361148L6.90560205e-17 2.5638852C-4.01235366e-17 1.67236646.0928256111 1.34908022.267132704 1.0231543.441439796.697228371.697228371.441439796 1.0231543.267132704 1.34908022.0928256111 1.67236646 6.01853049e-17 2.5638852-1.03584031e-16L8-1.60941863e-17zM34 14L34 15C34 15.5522847 34.4477153 16 35 16L41 16C41.5522847 16 42 15.5522847 42 15L42 14 45.4361148 14C46.3276335 14 46.6509198 14.0928256 46.9768457 14.2671327 47.3027716 14.4414398 47.5585602 14.6972284 47.7328673 15.0231543 47.9071744 15.3490802 48 15.6723665 48 16.5638852L48 45.4361148C48 46.3276335 47.9071744 46.6509198 47.7328673 46.9768457 47.5585602 47.3027716 47.3027716 47.5585602 46.9768457 47.7328673 46.6509198 47.9071744 46.3276335 48 45.4361148 48L30.5638852 48C29.6723665 48 29.3490802 47.9071744 29.0231543 47.7328673 28.6972284 47.5585602 28.4414398 47.3027716 28.2671327 46.9768457 28.0928256 46.6509198 28 46.3276335 28 45.4361148L28 16.5638852C28 15.6723665 28.0928256 15.3490802 28.2671327 15.0231543 28.4414398 14.6972284 28.6972284 14.4414398 29.0231543 14.2671327 29.3490802 14.0928256 29.6723665 14 30.5638852 14L34 14z"></path> <path fill="#9FE2D9" d="M3.2819426 2L4.7180574 2C5.16381677 2 5.32545989 2.04641281 5.48842285 2.13356635 5.65138581 2.2207199 5.7792801 2.34861419 5.86643365 2.51157715 5.95358719 2.67454011 6 2.83618323 6 3.2819426L6 4.7180574C6 5.16381677 5.95358719 5.32545989 5.86643365 5.48842285 5.7792801 5.65138581 5.65138581 5.7792801 5.48842285 5.86643365 5.32545989 5.95358719 5.16381677 6 4.7180574 6L3.2819426 6C2.83618323 6 2.67454011 5.95358719 2.51157715 5.86643365 2.34861419 5.7792801 2.2207199 5.65138581 2.13356635 5.48842285 2.04641281 5.32545989 2 5.16381677 2 4.7180574L2 3.2819426C2 2.83618323 2.04641281 2.67454011 2.13356635 2.51157715 2.2207199 2.34861419 2.34861419 2.2207199 2.51157715 2.13356635 2.67454011 2.04641281 2.83618323 2 3.2819426 2zM11.2819426-5.17920154e-17L16.7180574 5.17920154e-17C17.1638168-3.00926524e-17 17.3254599.0464128056 17.4884229.133566352 17.6513858.220719898 17.7792801.348614185 17.8664336.511577148 17.9535872.674540111 18 .83618323 18 1.2819426L18 6.7180574C18 7.16381677 17.9535872 7.32545989 17.8664336 7.48842285 17.7792801 7.65138581 17.6513858 7.7792801 17.4884229 7.86643365 17.3254599 7.95358719 17.1638168 8 16.7180574 8L11.2819426 8C10.8361832 8 10.6745401 7.95358719 10.5115771 7.86643365 10.3486142 7.7792801 10.2207199 7.65138581 10.1335664 7.48842285 10.0464128 7.32545989 10 7.16381677 10 6.7180574L10 1.2819426C10 .83618323 10.0464128.674540111 10.1335664.511577148 10.2207199.348614185 10.3486142.220719898 10.5115771.133566352 10.6745401.0464128056 10.8361832 3.00926524e-17 11.2819426-5.17920154e-17z"></path> <path fill="#EE2737" d="M14,2 C15.1045695,2 16,2.8954305 16,4 C16,5.1045695 15.1045695,6 14,6 C12.8954305,6 12,5.1045695 12,4 C12,2.8954305 12.8954305,2 14,2 Z"></path> </g> <g transform="translate(6 29)"> <path fill="#EE2737" d="M2.5638852,-1.03584031e-16 L15.4361148,1.03584031e-16 C16.3276335,-6.01853049e-17 16.6509198,0.0928256111 16.9768457,0.267132704 C17.3027716,0.441439796 17.5585602,0.697228371 17.7328673,1.0231543 C17.9071744,1.34908022 18,1.67236646 18,2.5638852 L18,6.4361148 C18,7.32763354 17.9071744,7.65091978 17.7328673,7.9768457 C17.5585602,8.30277163 17.3027716,8.5585602 16.9768457,8.7328673 C16.6509198,8.90717439 16.3276335,9 15.4361148,9 L2.5638852,9 C1.67236646,9 1.34908022,8.90717439 1.0231543,8.7328673 C0.697228371,8.5585602 0.441439796,8.30277163 0.267132704,7.9768457 C0.0928256111,7.65091978 4.01235366e-17,7.32763354 -6.90560205e-17,6.4361148 L6.90560205e-17,2.5638852 C-4.01235366e-17,1.67236646 0.0928256111,1.34908022 0.267132704,1.0231543 C0.441439796,0.697228371 0.697228371,0.441439796 1.0231543,0.267132704 C1.34908022,0.0928256111 1.67236646,6.01853049e-17 2.5638852,-1.03584031e-16 Z"></path> <g stroke="#FFFFFF" transform="translate(2.5 1.5)"> <polyline points="2.5 5 0 5 0 .5"></polyline> <path d="M4,5.5 L4,0.5"></path> <polyline points="9 .5 9 3.5 7.5 5 6 3.5 6 .5"></polyline> <polyline points="13.5 5 11 5 11 1 13.5 1"></polyline> <path d="M13,3 L11,3"></path> </g> </g> <path stroke="#9FE2D9" stroke-dasharray="0 4" stroke-linecap="round" stroke-linejoin="round" stroke-width="2" d="M28,12 L42,12 C43.1045695,12 44,12.8954305 44,14 L44,18"></path> <path stroke="#9FE2D9" stroke-dasharray="0 4" stroke-linecap="round" stroke-linejoin="round" stroke-width="2" d="M15,40 L29,40 C30.1045695,40 31,40.8954305 31,42 L31,46" transform="rotate(180 23 43)"></path> <path fill="#9FE2D9" d="M37,26 L39,26 C39.5522847,26 40,26.4477153 40,27 L40,29 C40,29.5522847 39.5522847,30 39,30 L37,30 C36.4477153,30 36,29.5522847 36,29 L36,27 C36,26.4477153 36.4477153,26 37,26 Z M37,32 L39,32 C39.5522847,32 40,32.4477153 40,33 L40,35 C40,35.5522847 39.5522847,36 39,36 L37,36 C36.4477153,36 36,35.5522847 36,35 L36,33 C36,32.4477153 36.4477153,32 37,32 Z M43,26 L45,26 C45.5522847,26 46,26.4477153 46,27 L46,29 C46,29.5522847 45.5522847,30 45,30 L43,30 C42.4477153,30 42,29.5522847 42,29 L42,27 C42,26.4477153 42.4477153,26 43,26 Z M43,32 L45,32 C45.5522847,32 46,32.4477153 46,33 L46,35 C46,35.5522847 45.5522847,36 45,36 L43,36 C42.4477153,36 42,35.5522847 42,35 L42,33 C42,32.4477153 42.4477153,32 43,32 Z M49,26 L51,26 C51.5522847,26 52,26.4477153 52,27 L52,29 C52,29.5522847 51.5522847,30 51,30 L49,30 C48.4477153,30 48,29.5522847 48,29 L48,27 C48,26.4477153 48.4477153,26 49,26 Z M49,32 L51,32 C51.5522847,32 52,32.4477153 52,33 L52,35 C52,35.5522847 51.5522847,36 51,36 L49,36 C48.4477153,36 48,35.5522847 48,35 L48,33 C48,32.4477153 48.4477153,32 49,32 Z M37,38 L39,38 C39.5522847,38 40,38.4477153 40,39 L40,41 C40,41.5522847 39.5522847,42 39,42 L37,42 C36.4477153,42 36,41.5522847 36,41 L36,39 C36,38.4477153 36.4477153,38 37,38 Z M49,38 L51,38 C51.5522847,38 52,38.4477153 52,39 L52,41 C52,41.5522847 51.5522847,42 51,42 L49,42 C48.4477153,42 48,41.5522847 48,41 L48,39 C48,38.4477153 48.4477153,38 49,38 Z M43,38 L45,38 C45.5522847,38 46,38.4477153 46,39 L46,41 C46,41.5522847 45.5522847,42 45,42 L43,42 C42.4477153,42 42,41.5522847 42,41 L42,39 C42,38.4477153 42.4477153,38 43,38 Z"></path> <rect width="4" height="4" x="36" y="44" fill="#FFFFFF" rx="1"></rect> <rect width="6" height="1" x="41" y="51" fill="#9FE2D9"></rect> </g> </svg> 