<?xml version="1.0" encoding="UTF-8"?> <svg xmlns="http://www.w3.org/2000/svg" width="60" height="60" viewBox="0 0 60 60"> <g fill="none"> <rect width="60" height="60" fill="#FFFFFF" rx="30"></rect> <path fill="#EE2737" d="M17.1277704,12 L42.8722296,12 C44.6552671,12 45.3018396,12.1856512 45.9536914,12.5342654 C46.6055433,12.8828796 47.1171204,13.3944567 47.4657346,14.0463086 C47.8143488,14.6981604 48,15.3447329 48,17.1277704 L48,34.8722296 C48,36.6552671 47.8143488,37.3018396 47.4657346,37.9536914 C47.1171204,38.6055433 46.6055433,39.1171204 45.9536914,39.4657346 C45.3018396,39.8143488 44.6552671,40 42.8722296,40 L17.1277704,40 C15.3447329,40 14.6981604,39.8143488 14.0463086,39.4657346 C13.3944567,39.1171204 12.8828796,38.6055433 12.5342654,37.9536914 C12.1856512,37.3018396 12,36.6552671 12,34.8722296 L12,17.1277704 C12,15.3447329 12.1856512,14.6981604 12.5342654,14.0463086 C12.8828796,13.3944567 13.3944567,12.8828796 14.0463086,12.5342654 C14.6981604,12.1856512 15.3447329,12 17.1277704,12 Z"></path> <path fill="#9FE2D9" d="M18.5638852 16L25.4361148 16C26.3276335 16 26.6509198 16.0928256 26.9768457 16.2671327 27.3027716 16.4414398 27.5585602 16.6972284 27.7328673 17.0231543 27.9071744 17.3490802 28 17.6723665 28 18.5638852L28 25.4361148C28 26.3276335 27.9071744 26.6509198 27.7328673 26.9768457 27.5585602 27.3027716 27.3027716 27.5585602 26.9768457 27.7328673 26.6509198 27.9071744 26.3276335 28 25.4361148 28L18.5638852 28C17.6723665 28 17.3490802 27.9071744 17.0231543 27.7328673 16.6972284 27.5585602 16.4414398 27.3027716 16.2671327 26.9768457 16.0928256 26.6509198 16 26.3276335 16 25.4361148L16 18.5638852C16 17.6723665 16.0928256 17.3490802 16.2671327 17.0231543 16.4414398 16.6972284 16.6972284 16.4414398 17.0231543 16.2671327 17.3490802 16.0928256 17.6723665 16 18.5638852 16zM35.1277704 10L44.8722296 10C46.6552671 10 47.3018396 10.1856512 47.9536914 10.5342654 48.6055433 10.8828796 49.1171204 11.3944567 49.4657346 12.0463086 49.8143488 12.6981604 50 13.3447329 50 15.1277704L50 24.8722296C50 26.6552671 49.8143488 27.3018396 49.4657346 27.9536914 49.1171204 28.6055433 48.6055433 29.1171204 47.9536914 29.4657346 47.3018396 29.8143488 46.6552671 30 44.8722296 30L35.1277704 30C33.3447329 30 32.6981604 29.8143488 32.0463086 29.4657346 31.3944567 29.1171204 30.8828796 28.6055433 30.5342654 27.9536914 30.1856512 27.3018396 30 26.6552671 30 24.8722296L30 15.1277704C30 13.3447329 30.1856512 12.6981604 30.5342654 12.0463086 30.8828796 11.3944567 31.3944567 10.8828796 32.0463086 10.5342654 32.6981604 10.1856512 33.3447329 10 35.1277704 10z"></path> <path stroke="#EE2737" stroke-width="2" d="M34.9229139,13 L45.0770861,13 C45.7457252,13 45.9881898,13.0696192 46.2326343,13.2003495 C46.4770787,13.3310798 46.6689202,13.5229213 46.7996505,13.7673657 C46.9303808,14.0118102 47,14.2542748 47,14.9229139 L47,25.0770861 C47,25.7457252 46.9303808,25.9881898 46.7996505,26.2326343 C46.6689202,26.4770787 46.4770787,26.6689202 46.2326343,26.7996505 C45.9881898,26.9303808 45.7457252,27 45.0770861,27 L34.9229139,27 C34.2542748,27 34.0118102,26.9303808 33.7673657,26.7996505 C33.5229213,26.6689202 33.3310798,26.4770787 33.2003495,26.2326343 C33.0696192,25.9881898 33,25.7457252 33,25.0770861 L33,14.9229139 C33,14.2542748 33.0696192,14.0118102 33.2003495,13.7673657 C33.3310798,13.5229213 33.5229213,13.3310798 33.7673657,13.2003495 C34.0118102,13.0696192 34.2542748,13 34.9229139,13 Z"></path> <rect width="8" height="8" x="36" y="16" fill="#EE2737" rx="4"></rect> <rect width="12" height="2" x="16" y="34" fill="#FFFFFF" rx="1"></rect> <path fill="#9FE2D9" d="M21,40 L40,40 L40,41.4361148 C40,42.3276335 39.9071744,42.6509198 39.7328673,42.9768457 C39.5585602,43.3027716 39.3027716,43.5585602 38.9768457,43.7328673 C38.6509198,43.9071744 38.3276335,44 37.4361148,44 L23.5638852,44 C22.6723665,44 22.3490802,43.9071744 22.0231543,43.7328673 C21.6972284,43.5585602 21.4414398,43.3027716 21.2671327,42.9768457 C21.0928256,42.6509198 21,42.3276335 21,41.4361148 L21,40 Z"></path> <path fill="#EE2737" d="M27 44L34 44 34 53C34 53.5522847 33.5522847 54 33 54L28 54C27.4477153 54 27 53.5522847 27 53L27 44zM19 45C20.6568542 45 22 46.3431458 22 48L22 50C22 51.6568542 20.6568542 53 19 53 17.3431458 53 16 51.6568542 16 50L16 48C16 46.3431458 17.3431458 45 19 45z"></path> <rect width="5" height="2" x="22" y="48" fill="#9FE2D9"></rect> <path fill="#9FE2D9" d="M12,4 C7.581722,4 4,7.581722 4,12 L0,12 C0,5.372583 5.372583,0 12,0 L12,4 Z"></path> <path fill="#EE2737" d="M6,12 C6,8.6862915 8.6862915,6 12,6 L12,12 L6,12 Z"></path> </g> </svg> 