<?xml version="1.0" encoding="UTF-8"?> <svg xmlns="http://www.w3.org/2000/svg" width="60" height="60" viewBox="0 0 60 60"> <g fill="none"> <rect width="60" height="60" fill="#FFFFFF" rx="30"></rect> <g stroke-width="2" transform="translate(6 6)"> <circle cx="24" cy="24" r="23" stroke="#9FE2D9"></circle> <circle cx="24" cy="24" r="19" stroke="#EE2737"></circle> <circle cx="24" cy="24" r="15" stroke="#9FE2D9"></circle> <circle cx="24" cy="24" r="11" stroke="#EE2737"></circle> </g> <polygon fill="#FFFFFF" points="30 56 21 56 13 53 10 48 30 28 50 48 46 53 39 56"></polygon> <g stroke="#EE2737" transform="translate(22.5 27.5)"> <polyline points="2.5 4 0 4 0 0 2.5 0"></polyline> <path d="M5.5 4L4 4 4 0 5.5 0C6.05228475-1.01453063e-16 6.5.44771525 6.5 1L6.5 3C6.5 3.55228475 6.05228475 4 5.5 4zM10 2L11 2 11 3C11 3.55228475 10.5522847 4 10 4L9.5 4C8.94771525 4 8.5 3.55228475 8.5 3L8.5 1C8.5.44771525 8.94771525 1.01453063e-16 9.5 0L10 0C10.5522847-1.01453063e-16 11 .44771525 11 1L11 1"></path> <path stroke-linejoin="round" d="M2,2 L0,2"></path> <polyline points="15.5 4 13 4 13 0 15.5 0"></polyline> <path d="M15,2 L13,2"></path> </g> <path fill="#EE2737" d="M22.5,39.5 L26,43 L30,39 L34,43 L37.5,39.5 L45.9412566,47.9412566 C41.7022971,51.7104044 36.1185304,54 30,54 C23.8814696,54 18.2977029,51.7104044 14.0587434,47.9412566 L22.5,39.5 Z"></path> <path fill="#9FE2D9" d="M21.5,40.5 L30,32 L38.5,40.5 L34,45 L30,41 L26,45 L21.5,40.5 Z"></path> <polyline stroke="#FFFFFF" stroke-width="2" points="21 40 26 45 30 41 34 45 39 40"></polyline> </g> </svg> 