<svg xmlns="http://www.w3.org/2000/svg" width="35" height="35" viewBox="0 0 35 35"><path fill="#D8D8D8" d="M18.93 23.696c2.153 0 3.985-.756 5.495-2.267l5.277-5.218c1.53-1.49 2.298-3.31 2.298-5.464 0-2.133-.76-3.953-2.282-5.466-1.52-1.51-3.348-2.266-5.48-2.266-1.966 0-3.79.756-5.465 2.266l-4.377 3.945h5.713c.33-.414.982-.896 1.955-1.445.974-.55 1.696-.822 2.174-.822 1.033 0 1.924.372 2.67 1.12.745.745 1.118 1.636 1.118 2.67 0 1.076-.373 1.966-1.118 2.67l-5.28 5.217c-.68.683-1.53 1.023-2.544 1.023-.912 0-2.132-.373-3.664-1.12l-2.05 3.106c1.84 1.365 3.695 2.05 5.557 2.05zM5.28 29.718c1.522 1.51 3.348 2.266 5.48 2.266 1.966 0 3.79-.755 5.465-2.266l4.377-3.945H14.89c-.352.415-1.01.892-1.97 1.43-.963.538-1.682.81-2.158.81-1.035 0-1.925-.367-2.67-1.103-.746-.736-1.12-1.62-1.12-2.654 0-1.076.374-1.967 1.12-2.672l5.278-5.217c.704-.702 1.552-1.055 2.545-1.055.953 0 2.173.384 3.664 1.15l2.05-3.105c-1.864-1.387-3.716-2.08-5.56-2.08-2.11 0-3.94.755-5.495 2.267L5.298 18.76C3.766 20.248 3 22.08 3 24.253c0 2.135.76 3.954 2.282 5.465z"/></svg>