<?xml version="1.0" encoding="utf-8"?>
<!-- Generator: Adobe Illustrator 18.1.0, SVG Export Plug-In . SVG Version: 6.00 Build 0)  -->
<!DOCTYPE svg PUBLIC "-//W3C//DTD SVG 1.1//EN" "http://www.w3.org/Graphics/SVG/1.1/DTD/svg11.dtd">
<svg version="1.1" id="Layer_1" xmlns:sketch="http://www.bohemiancoding.com/sketch/ns"
	 xmlns="http://www.w3.org/2000/svg" xmlns:xlink="http://www.w3.org/1999/xlink" x="0px" y="0px" viewBox="0 268.3 244 206.8"
	 enable-background="new 0 268.3 244 206.8" xml:space="preserve">
<title>Slice 1</title>
<desc>Created with Sketch.</desc>
<g>
	<g>
		<polygon points="35.9,295.2 24.9,295.2 24.9,385.4 63.3,385.4 63.3,374.9 35.9,374.9 		"/>
		<rect x="74.9" y="295.1" width="11" height="90.3"/>
		<polygon points="123.4,374.9 120.8,374.9 108.9,295.1 97.7,295.1 111.2,385.8 132.8,385.8 146.6,295.1 135.5,295.1 		"/>
		<polygon points="157.3,385.4 196.2,385.4 196.2,374.4 168.3,374.4 168.3,346.2 190.3,346.2 190.3,335.3 168.3,335.3 168.3,306.1 
			194.5,306.1 194.5,295.2 157.3,295.2 		"/>
	</g>
	<g>
		<g>
			<path d="M232.7,305.5v45.9h-17.9v-3.3l16.2-42.6L232.7,305.5L232.7,305.5z M203.7,346.2v16.1h29.1v23H244v-90.3h-20.7
				L203.7,346.2z"/>
			<polygon fill="#EE2737" points="215,268.3 0.2,268.3 0.2,412.3 215,412.3 215,374.4 203.9,374.4 203.9,401.8 11.3,401.8 
				11.3,278.8 203.9,278.8 203.9,306.2 206.6,306.2 215,284.5 			"/>
		</g>
	</g>
	<g>
		<path d="M8.2,463.6c0,0.9,2.5,3,3.6,3.6c0.1,0,0.1,0.1,0.4,0.1h10.6c0.2,0,0.4-0.1,0.4-0.1c1.1-0.6,3.6-2.9,3.6-3.8v-7.5h-10v-7.8
			h18.2v15.7c0,0,0.6,5.1,1.5,10.9h-8l-0.4-1.9c-1.1,0.8-3,2.3-4.8,2.3H11.8c-1.7,0-3.6-0.6-4.8-1.4c-1.6-0.9-4.7-4-5.7-5.4
			c-0.9-1.5-1.3-3.1-1.3-4.6v-24.6c0-1.5,0.3-3,1.3-4.4c0.9-1.3,4-4.7,5.7-5.6c1.3-0.8,3.1-1.3,4.8-1.3h11.3c4.6,0,7.9,3.6,9.9,6.5
			c0.6,0.8,1.3,1.8,1.6,2.7l-7.9,2.2c0,0-1.7-2.3-3.7-3.6c-0.1-0.1-0.3-0.1-0.4-0.1H12.1c-0.2,0-0.4,0.1-0.4,0.1
			c-0.8,0.5-2.6,1.9-3.5,3.3c-0.1,0.1-0.1,0.3-0.1,0.3S8.2,463.6,8.2,463.6z"/>
		<path d="M82,468c-1,1.3-4,4.7-5.7,5.6c-1.3,0.8-3.2,1.4-4.8,1.4H59.7c-1.7,0-3.6-0.6-4.8-1.4c-1.6-0.9-4.7-4.3-5.7-5.6
			c-0.9-1.4-1.3-3-1.3-4.4v-24.3c0-1.5,0.3-3,1.3-4.4c0.9-1.3,4-4.7,5.7-5.6c1.3-0.8,3.1-1.4,4.8-1.4h11.8c1.6,0,3.6,0.6,4.8,1.4
			c1.6,0.9,4.7,4.3,5.7,5.6c0.9,1.4,1.3,3,1.3,4.4v24.3C83.2,465.1,82.9,466.6,82,468z M56.1,463.5c0,0,0,0.2,0.1,0.3
			c0.9,1.4,2.6,2.9,3.4,3.3c0.1,0.1,0.3,0.1,0.4,0.1h11.2c0,0,0.2,0,0.4-0.1c0.8-0.5,2.5-1.9,3.4-3.3c0.1-0.1,0.1-0.3,0.1-0.3v-24
			c0,0,0-0.3-0.1-0.4c-0.9-1.4-2.6-3-3.4-3.4c-0.1-0.1-0.3-0.1-0.4-0.1H60c0,0-0.3,0-0.4,0.1c-0.8,0.5-2.5,2-3.4,3.4
			c-0.1,0.1-0.1,0.4-0.1,0.4V463.5z"/>
		<path d="M125.7,450.5c-0.7,1-3.1,3.3-4.2,4.1c-1.6,1.2-3.7,1.7-5.5,1.7h-13.7v18.3h-8.2v-46.5H116c1.9,0,4,0.6,5.5,1.7
			c1.1,0.8,3.5,3.3,4.2,4.3c0.9,1.4,1.4,3.1,1.4,4.7v6.8C127.1,447.4,126.7,449.1,125.7,450.5z M118.9,439c0,0,0-0.4-0.1-0.6
			c-0.5-0.8-1.7-2.4-2.5-2.5c-0.1,0-0.2,0-0.4,0h-13.7v12.6H116c0.7,0,2.3-1.5,2.9-2.6c0,0,0.1-0.1,0.1-0.3V439z"/>
		<path d="M168.6,450.5c-0.7,1-3.1,3.3-4.2,4.1c-0.6,0.5-1.3,0.8-2,1.1l9.2,19h-8.9l-8.6-18.3h-8.9v18.3h-8.2v-46.5h21.8
			c1.9,0,4,0.6,5.5,1.7c1.1,0.8,3.5,3.3,4.2,4.3c0.9,1.4,1.4,3.1,1.4,4.7v6.8C170,447.4,169.6,449.1,168.6,450.5z M161.9,439
			c0,0,0-0.4-0.1-0.6c-0.5-0.8-1.7-2.4-2.5-2.5h-14.1v12.6h13.7c0.7,0,2.3-1.5,2.9-2.6c0,0,0.1-0.1,0.1-0.3L161.9,439L161.9,439z"/>
		<path d="M214,468c-1,1.3-4,4.7-5.7,5.6c-1.3,0.8-3.2,1.4-4.8,1.4h-11.8c-1.7,0-3.6-0.6-4.8-1.4c-1.6-0.9-4.7-4.3-5.7-5.6
			c-0.9-1.4-1.3-3-1.3-4.4v-24.3c0-1.5,0.3-3,1.3-4.4c0.9-1.3,4-4.7,5.7-5.6c1.3-0.8,3.1-1.4,4.8-1.4h11.8c1.6,0,3.6,0.6,4.8,1.4
			c1.6,0.9,4.7,4.3,5.7,5.6c0.9,1.4,1.3,3,1.3,4.4v24.3C215.3,465.1,215,466.6,214,468z M188.2,463.5c0,0,0,0.2,0.1,0.3
			c0.9,1.4,2.6,2.9,3.4,3.3c0.1,0.1,0.3,0.1,0.4,0.1h11.2c0,0,0.2,0,0.4-0.1c0.8-0.5,2.5-1.9,3.4-3.3c0.1-0.1,0.1-0.3,0.1-0.3v-24
			c0,0,0-0.3-0.1-0.4c-0.9-1.4-2.6-3-3.4-3.4c-0.1-0.1-0.3-0.1-0.4-0.1H192c0,0-0.3,0-0.4,0.1c-0.8,0.5-2.5,2-3.4,3.4
			c-0.1,0.1-0.1,0.4-0.1,0.4V463.5z"/>
	</g>
</g>
</svg>
