<?xml version="1.0" encoding="UTF-8" standalone="no"?>
<svg width="245px" height="208px" viewBox="0 0 245 208" version="1.1" xmlns="http://www.w3.org/2000/svg" xmlns:xlink="http://www.w3.org/1999/xlink" xmlns:sketch="http://www.bohemiancoding.com/sketch/ns">
    <!-- Generator: Sketch 3.2.2 (9983) - http://www.bohemiancoding.com/sketch -->
    <title>Slice 1</title>
    <desc>Created with Sketch.</desc>
    <defs></defs>
    <g id="Page-1" stroke="none" stroke-width="1" fill="none" fill-rule="evenodd" sketch:type="MSPage">
        <g id="logo" sketch:type="MSLayerGroup">
            <g id="Group" sketch:type="MSShapeGroup">
                <g transform="translate(25.000000, 27.000000)" fill="#FFFFFF">
                    <path d="M11,0.5 L0,0.5 L0,90.7 L38.4,90.7 L38.4,80.2 L11,80.2 L11,0.5 Z" id="Shape"></path>
                    <rect id="Rectangle-path" x="49.9" y="0.4" width="11" height="90.3"></rect>
                    <path d="M98.5,80.2 L95.9,80.2 L84.1,0.4 L72.8,0.4 L86.3,91.2 L107.9,91.2 L121.7,0.4 L110.6,0.4 L98.5,80.2 Z" id="Shape"></path>
                    <path d="M132.4,90.7 L171.3,90.7 L171.3,79.7 L143.4,79.7 L143.4,51.5 L165.4,51.5 L165.4,40.6 L143.4,40.6 L143.4,11.5 L169.6,11.5 L169.6,0.5 L132.4,0.5 L132.4,90.7 Z" id="Shape"></path>
                </g>
                <g id="Shape">
                    <path d="M232.8,37.9 L232.8,83.8 L214.9,83.8 L214.9,80.5 L231.1,37.9 L232.8,37.9 L232.8,37.9 Z M203.8,78.5 L203.8,94.6 L232.9,94.6 L232.9,117.6 L244.2,117.6 L244.2,27.4 L223.5,27.4 L203.8,78.5 L203.8,78.5 Z" fill="#FFFFFF"></path>
                    <path d="M215.1,0.6 L0.3,0.6 L0.3,144.6 L215.1,144.6 L215.1,106.7 L204.1,106.7 L204.1,134.1 L11.4,134.1 L11.4,11.1 L204.1,11.1 L204.1,38.6 L206.7,38.6 L215.1,16.8 L215.1,0.6 Z" fill="#EE2737"></path>
                </g>
                <g transform="translate(0.000000, 160.000000)" id="Shape" fill="#FFFFFF">
                    <path d="M8.3,35.9 C8.3,36.8 10.8,38.9 11.9,39.5 C12,39.5 12,39.6 12.3,39.6 L22.9,39.6 C23.1,39.6 23.3,39.5 23.3,39.5 C24.4,38.9 26.9,36.6 26.9,35.7 L26.9,28.2 L16.9,28.2 L16.9,20.4 L35,20.4 L35,36.1 C35,36.1 35.5,41.2 36.5,47 L28.5,47 L28.1,45.1 C27,45.9 25.1,47.3 23.3,47.3 L11.9,47.3 C10.2,47.3 8.3,46.7 7.1,45.9 C5.5,45 2.4,41.8 1.4,40.5 C0.5,39.1 0.2,37.5 0.2,36 L0.2,11.4 C0.2,9.9 0.5,8.4 1.4,7 C2.3,5.7 5.5,2.3 7.1,1.4 C8.3,0.6 10.2,0.1 11.9,0.1 L23.3,0.1 C27.9,0.1 31.2,3.7 33.2,6.5 C33.8,7.4 34.4,8.3 34.8,9.2 L27,11.4 C27,11.4 25.3,9.1 23.3,7.8 C23.2,7.7 23,7.7 22.9,7.7 L12.2,7.7 C12,7.7 11.8,7.8 11.8,7.8 C10.9,8.3 9.2,9.7 8.3,11.1 C8.2,11.2 8.2,11.4 8.2,11.4 L8.2,35.9 L8.3,35.9 Z"></path>
                    <path d="M82.1,40.4 C81.1,41.7 78,45.1 76.4,46 C75.2,46.8 73.2,47.4 71.6,47.4 L59.7,47.4 C58,47.4 56.1,46.8 54.9,46 C53.3,45.1 50.2,41.7 49.2,40.4 C48.3,39 48,37.4 48,36 L48,11.7 C48,10.2 48.3,8.7 49.2,7.3 C50.1,6 53.3,2.6 54.9,1.7 C56.1,0.9 58,0.3 59.7,0.3 L71.5,0.3 C73.1,0.3 75.1,0.9 76.3,1.7 C77.9,2.6 81,6 82,7.3 C82.9,8.7 83.2,10.3 83.2,11.7 L83.2,36 C83.3,37.4 83,38.9 82.1,40.4 L82.1,40.4 Z M56.2,35.8 C56.2,35.8 56.2,36 56.3,36.1 C57.2,37.5 58.9,39 59.7,39.4 C59.8,39.5 60,39.5 60.1,39.5 L71.3,39.5 C71.3,39.5 71.5,39.5 71.7,39.4 C72.6,38.9 74.2,37.4 75.1,36.1 C75.2,36 75.2,35.8 75.2,35.8 L75.2,11.8 C75.2,11.8 75.2,11.5 75.1,11.4 C74.2,10 72.5,8.4 71.7,8 C71.6,7.9 71.4,7.9 71.3,7.9 L60.1,7.9 C60.1,7.9 59.8,7.9 59.7,8 C58.8,8.5 57.2,10 56.3,11.4 C56.2,11.5 56.2,11.8 56.2,11.8 L56.2,35.8 L56.2,35.8 L56.2,35.8 Z"></path>
                    <path d="M125.8,22.8 C125.1,23.8 122.7,26.1 121.6,26.9 C120,28.1 117.9,28.6 116.1,28.6 L102.4,28.6 L102.4,47 L94.2,47 L94.2,0.5 L116.1,0.5 C118,0.5 120.1,1.1 121.6,2.2 C122.7,3 125.1,5.5 125.8,6.5 C126.7,7.9 127.2,9.6 127.2,11.2 L127.2,18 C127.2,19.8 126.8,21.4 125.8,22.8 L125.8,22.8 Z M119.1,11.3 C119.1,11.3 119.1,10.9 119,10.8 C118.5,9.9 117.3,8.4 116.5,8.3 L116.1,8.3 L102.4,8.3 L102.4,20.9 L116.1,20.9 C116.8,20.9 118.3,19.4 119,18.3 C119,18.3 119.1,18.2 119.1,18 L119.1,11.3 L119.1,11.3 Z"></path>
                    <path d="M168.7,22.8 C168,23.8 165.6,26.1 164.5,26.9 C163.9,27.4 163.2,27.8 162.5,28 L171.8,47 L162.9,47 L154.3,28.7 L145.4,28.7 L145.4,47 L137.2,47 L137.2,0.5 L159,0.5 C160.9,0.5 163,1.1 164.5,2.2 C165.6,3 168,5.5 168.7,6.5 C169.6,7.9 170.1,9.6 170.1,11.2 L170.1,18 C170.1,19.8 169.7,21.4 168.7,22.8 L168.7,22.8 Z M162,11.3 C162,11.3 162,10.9 161.9,10.8 C161.4,9.9 160.2,8.4 159.4,8.3 L145.3,8.3 L145.3,20.9 L159,20.9 C159.7,20.9 161.2,19.4 161.9,18.3 C161.9,18.3 162,18.2 162,18 L162,11.3 L162,11.3 Z"></path>
                    <path d="M214.1,40.4 C213.1,41.7 210,45.1 208.4,46 C207.2,46.8 205.2,47.4 203.6,47.4 L191.8,47.4 C190.1,47.4 188.2,46.8 187,46 C185.4,45.1 182.3,41.7 181.3,40.4 C180.4,39 180.1,37.4 180.1,36 L180.1,11.7 C180.1,10.2 180.4,8.7 181.3,7.3 C182.2,6 185.4,2.6 187,1.7 C188.2,0.9 190.1,0.3 191.8,0.3 L203.6,0.3 C205.2,0.3 207.2,0.9 208.4,1.7 C210,2.6 213.1,6 214.1,7.3 C215,8.7 215.3,10.3 215.3,11.7 L215.3,36 C215.4,37.4 215.1,38.9 214.1,40.4 L214.1,40.4 Z M188.3,35.8 C188.3,35.8 188.3,36 188.4,36.1 C189.3,37.5 191,39 191.8,39.4 C191.9,39.5 192.1,39.5 192.2,39.5 L203.4,39.5 C203.4,39.5 203.6,39.5 203.8,39.4 C204.7,38.9 206.3,37.4 207.2,36.1 C207.3,36 207.3,35.8 207.3,35.8 L207.3,11.8 C207.3,11.8 207.3,11.5 207.2,11.4 C206.3,10 204.6,8.4 203.8,8 C203.7,7.9 203.5,7.9 203.4,7.9 L192.2,7.9 C192.2,7.9 191.9,7.9 191.8,8 C190.9,8.5 189.3,10 188.4,11.4 C188.3,11.5 188.3,11.8 188.3,11.8 L188.3,35.8 L188.3,35.8 Z"></path>
                </g>
            </g>
        </g>
    </g>
</svg>