<?xml version="1.0" encoding="UTF-8" standalone="no"?>
<svg width="40px" height="24px" viewBox="0 0 40 24" version="1.1" xmlns="http://www.w3.org/2000/svg" xmlns:xlink="http://www.w3.org/1999/xlink" xmlns:sketch="http://www.bohemiancoding.com/sketch/ns">
    <!-- Generator: Sketch 3.2.2 (9983) - http://www.bohemiancoding.com/sketch -->
    <title>Group</title>
    <desc>Created with Sketch.</desc>
    <defs></defs>
    <g id="Page-1" stroke="none" stroke-width="1" fill="none" fill-rule="evenodd" sketch:type="MSPage">
        <g id="logo-white" sketch:type="MSLayerGroup" fill="#FFFFFF">
            <g id="Page-1" sketch:type="MSShapeGroup">
                <g id="logo">
                    <g id="Page-1">
                        <g id="logo">
                            <g id="Group">
                                <g transform="translate(4.081633, 4.413462)">
                                    <path d="M1.79591837,0.0817307692 L0,0.0817307692 L0,14.8259615 L6.26938776,14.8259615 L6.26938776,13.1096154 L1.79591837,13.1096154 L1.79591837,0.0817307692 L1.79591837,0.0817307692 Z" id="Shape"></path>
                                    <rect id="Rectangle-path" x="8.14693878" y="0.0653846154" width="1.79591837" height="14.7605769"></rect>
                                    <path d="M16.0816327,13.1096154 L15.6571429,13.1096154 L13.7306122,0.0653846154 L11.8857143,0.0653846154 L14.0897959,14.9076923 L17.6163265,14.9076923 L19.8693878,0.0653846154 L18.0571429,0.0653846154 L16.0816327,13.1096154 L16.0816327,13.1096154 Z" id="Shape"></path>
                                    <path d="M21.6163265,14.8259615 L27.9673469,14.8259615 L27.9673469,13.0278846 L23.4122449,13.0278846 L23.4122449,8.41826923 L27.0040816,8.41826923 L27.0040816,6.63653846 L23.4122449,6.63653846 L23.4122449,1.87980769 L27.6897959,1.87980769 L27.6897959,0.0817307692 L21.6163265,0.0817307692 L21.6163265,14.8259615 L21.6163265,14.8259615 Z" id="Shape"></path>
                                </g>
                                <g id="Shape">
                                    <path d="M38.0081633,6.19519231 L38.0081633,13.6980769 L35.0857143,13.6980769 L35.0857143,13.1586538 L37.7306122,6.19519231 L38.0081633,6.19519231 L38.0081633,6.19519231 Z M33.2734694,12.8317308 L33.2734694,15.4634615 L38.0244898,15.4634615 L38.0244898,19.2230769 L39.8693878,19.2230769 L39.8693878,4.47884615 L36.4897959,4.47884615 L33.2734694,12.8317308 L33.2734694,12.8317308 Z"></path>
                                    <path d="M35.1183673,0.0980769231 L0.0489795918,0.0980769231 L0.0489795918,23.6365385 L35.1183673,23.6365385 L35.1183673,17.4413462 L33.322449,17.4413462 L33.322449,21.9201923 L1.86122449,21.9201923 L1.86122449,1.81442308 L33.322449,1.81442308 L33.322449,6.30961538 L33.7469388,6.30961538 L35.1183673,2.74615385 L35.1183673,0.0980769231 L35.1183673,0.0980769231 Z"></path>
                                </g>
                            </g>
                        </g>
                    </g>
                </g>
            </g>
        </g>
    </g>
</svg>