<svg xmlns="http://www.w3.org/2000/svg" xmlns:xlink="http://www.w3.org/1999/xlink" width="132" height="58" viewBox="0 0 132 58">
    <defs>
        <linearGradient id="a" x1="50%" x2="50%" y1="0%" y2="100%">
            <stop offset="0%" stop-color="#FFF"/>
            <stop offset="100%"/>
        </linearGradient>
        <path id="b" d="M29 0C12.983.001 0 12.983 0 29s12.983 29 29 29 28.999-12.983 29-29C57.999 12.983 45.017.001 29 0zM2.48 29C2.508 14.354 14.355 2.507 29 2.48 43.646 2.508 55.493 14.355 55.52 29 55.492 43.646 43.645 55.493 29 55.52 14.354 55.492 2.507 43.645 2.48 29z"/>
    </defs>
    <g fill="none" fill-rule="evenodd">
        <path fill="#FFF" d="M11.226 39.204c-.86 0-1.56-.719-1.56-1.604V20.4c0-.665.4-1.26 1.004-1.498a1.53 1.53 0 0 1 1.719.43L24.844 33.66a1.636 1.636 0 0 1-.124 2.265 1.528 1.528 0 0 1-2.201-.126l-9.733-11.198V37.6c0 .885-.699 1.604-1.56 1.604M32.754 39.204a1.61 1.61 0 0 1-1.616-1.604V24.273l-5.286 5.246a1.624 1.624 0 0 1-2.286 0 1.595 1.595 0 0 1 0-2.268l8.045-7.985a1.624 1.624 0 0 1 1.762-.347c.604.247.997.833.997 1.482V37.6a1.61 1.61 0 0 1-1.616 1.604M46.22 38.667c-.428 0-.854-.168-1.165-.498l-1.68-1.784a1.49 1.49 0 0 1 .102-2.154 1.614 1.614 0 0 1 2.227.1l1.681 1.784a1.49 1.49 0 0 1-.103 2.154 1.602 1.602 0 0 1-1.061.398M39.206 35.981c-.208 0-.417-.038-.617-.12a1.576 1.576 0 0 1-.996-1.455V20.371c0-.87.722-1.575 1.613-1.575.893 0 1.615.705 1.615 1.575v10.233l4.756-4.64a1.643 1.643 0 0 1 2.283 0c.631.615.631 1.613 0 2.228L40.35 35.52a1.635 1.635 0 0 1-1.143.461M64.981 31.907V21.502c0-.44.159-.815.476-1.127a1.56 1.56 0 0 1 1.133-.466c.202-.019.395-.029.578-.029 1.19 0 1.967.44 2.333 1.322l2.726 6.722 2.732-6.722a2.078 2.078 0 0 1 1.949-1.292c.196-.027.382-.04.558-.04.227 0 .451.023.672.068.377.085.695.263.954.535.26.271.39.615.39 1.03v10.385c0 .388-.142.72-.424.996a1.406 1.406 0 0 1-1.017.412c-.39 0-.722-.137-.999-.412a1.358 1.358 0 0 1-.414-.996v-7.996l-3.617 8.89a.76.76 0 0 1-.304.373.891.891 0 0 1-.5.141.795.795 0 0 1-.755-.515l-3.617-8.889v8.015c0 .383-.141.71-.422.982a1.415 1.415 0 0 1-1.02.407c-.385 0-.717-.137-.995-.412a1.33 1.33 0 0 1-.417-.977M81.909 32.562v-7.46c0-.347.13-.643.392-.886s.59-.365.981-.365c.358 0 .666.123.925.37.257.246.387.54.387.882v7.459c0 .355-.131.655-.392.901-.262.247-.582.37-.96.37-.373 0-.688-.123-.946-.37a1.197 1.197 0 0 1-.387-.901m.201-10.095a1.424 1.424 0 0 1-.48-1.08c0-.42.158-.778.475-1.073a1.607 1.607 0 0 1 1.136-.444c.447 0 .828.148 1.14.444.314.295.47.653.47 1.074 0 .42-.156.78-.47 1.079a1.59 1.59 0 0 1-1.14.448 1.6 1.6 0 0 1-1.13-.448M86.463 31.996c0-.293.104-.543.313-.749a.985.985 0 0 1 .71-.308c.196 0 .363.046.502.137.885.522 1.735.783 2.55.783.526 0 .922-.096 1.192-.29.268-.193.403-.447.403-.762 0-.216-.1-.393-.3-.53-.2-.138-.458-.247-.777-.328-.318-.08-.669-.154-1.053-.218a8.304 8.304 0 0 1-1.22-.31 5.562 5.562 0 0 1-1.142-.516 2.275 2.275 0 0 1-.81-.864c-.207-.373-.31-.817-.31-1.332 0-.861.348-1.59 1.044-2.186.696-.596 1.641-.893 2.834-.893.684 0 1.369.109 2.055.327.687.218 1.154.509 1.403.873a.86.86 0 0 1 .154.506c0 .268-.1.498-.299.687a.964.964 0 0 1-.684.285.934.934 0 0 1-.472-.127 4.11 4.11 0 0 0-2.158-.578c-.443 0-.802.09-1.078.271-.277.18-.415.407-.415.678 0 .187.118.342.351.464.234.122.5.223.796.3.296.078.634.149 1.012.21.379.063.786.17 1.22.322.433.152.812.335 1.136.55.324.214.588.52.792.917.204.397.307.863.307 1.399 0 .908-.365 1.656-1.094 2.241-.729.585-1.733.878-3.011.878a7.811 7.811 0 0 1-2.218-.344c-.775-.229-1.295-.543-1.562-.943a.913.913 0 0 1-.171-.55M96.13 31.996c0-.293.104-.543.312-.749a.985.985 0 0 1 .71-.308c.196 0 .363.046.503.137.885.522 1.735.783 2.55.783.525 0 .922-.096 1.192-.29.268-.193.403-.447.403-.762 0-.216-.1-.393-.3-.53-.2-.138-.459-.247-.778-.328-.317-.08-.668-.154-1.053-.218a8.304 8.304 0 0 1-1.22-.31 5.562 5.562 0 0 1-1.141-.516 2.275 2.275 0 0 1-.81-.864c-.207-.373-.31-.817-.31-1.332 0-.861.347-1.59 1.043-2.186.696-.596 1.642-.893 2.835-.893.683 0 1.368.109 2.054.327.687.218 1.155.509 1.404.873a.86.86 0 0 1 .153.506c0 .268-.1.498-.298.687a.964.964 0 0 1-.684.285.934.934 0 0 1-.473-.127 4.11 4.11 0 0 0-2.157-.578c-.443 0-.802.09-1.079.271-.276.18-.414.407-.414.678 0 .187.117.342.351.464.234.122.5.223.796.3.296.078.634.149 1.012.21.378.063.785.17 1.22.322.433.152.812.335 1.136.55.323.214.587.52.792.917.204.397.306.863.306 1.399 0 .908-.365 1.656-1.094 2.241-.728.585-1.732.878-3.01.878a7.811 7.811 0 0 1-2.218-.344c-.775-.229-1.295-.543-1.562-.943a.913.913 0 0 1-.171-.55M106.075 32.562v-7.46c0-.347.131-.643.393-.886.261-.243.589-.365.981-.365.358 0 .666.123.925.37.257.246.387.54.387.882v7.459c0 .355-.131.655-.393.901-.262.247-.582.37-.96.37-.372 0-.687-.123-.945-.37a1.197 1.197 0 0 1-.388-.901m.202-10.095a1.424 1.424 0 0 1-.48-1.08c0-.42.158-.778.475-1.073a1.607 1.607 0 0 1 1.136-.444c.447 0 .827.148 1.14.444.314.295.47.653.47 1.074 0 .42-.156.78-.47 1.079a1.59 1.59 0 0 1-1.14.448 1.6 1.6 0 0 1-1.131-.448M113.252 28.717c0 .798.22 1.471.66 2.018.442.546 1.045.82 1.81.82.764 0 1.37-.274 1.818-.82.447-.547.671-1.22.671-2.018 0-.793-.224-1.459-.67-1.999-.449-.54-1.055-.81-1.82-.81-.764 0-1.367.27-1.808.81-.441.54-.661 1.206-.661 1.999m-2.622 0c0-.93.2-1.776.6-2.54.4-.762.991-1.377 1.775-1.846.784-.467 1.69-.701 2.717-.701 1.034 0 1.944.234 2.731.701.787.469 1.38 1.084 1.78 1.847.4.763.6 1.609.6 2.539 0 .694-.119 1.35-.356 1.969a5.113 5.113 0 0 1-.995 1.63c-.426.468-.964.838-1.614 1.11a5.505 5.505 0 0 1-2.146.407c-1.028 0-1.933-.234-2.717-.702a4.615 4.615 0 0 1-1.776-1.856c-.399-.77-.6-1.622-.6-2.558M122.444 32.55v-7.528c0-.351.125-.65.375-.895.249-.246.56-.368.934-.368.341 0 .634.124.88.373.246.248.37.545.37.89v.14c.354-.431.826-.795 1.416-1.09.59-.295 1.252-.442 1.987-.442 1.042 0 1.831.276 2.366.83.534.554.802 1.324.802 2.312v5.778c0 .358-.125.662-.374.91a1.247 1.247 0 0 1-.915.373 1.22 1.22 0 0 1-.9-.373 1.242 1.242 0 0 1-.369-.91v-4.783c0-.65-.156-1.118-.468-1.403-.31-.285-.756-.427-1.333-.427a2.52 2.52 0 0 0-1.278.333c-.387.222-.699.495-.935.82v5.46c0 .358-.124.662-.373.91-.25.248-.555.373-.915.373-.355 0-.655-.125-.9-.373a1.243 1.243 0 0 1-.37-.91M64.981 45.017v-8.971c0-.166.062-.308.184-.426a.636.636 0 0 1 .46-.176c.166 0 .308.06.425.176a.58.58 0 0 1 .176.426v4.669l4.317-5.066a.55.55 0 0 1 .432-.19c.166 0 .31.057.431.173a.55.55 0 0 1 .184.414.468.468 0 0 1-.14.344l-3.41 3.9 3.79 4.398a.535.535 0 0 1 .133.359c0 .151-.058.29-.173.414a.557.557 0 0 1-.427.187.575.575 0 0 1-.447-.205l-3.688-4.398-1.002 1.136v2.836c0 .171-.06.317-.18.436a.61.61 0 0 1-.45.18.592.592 0 0 1-.435-.18.593.593 0 0 1-.18-.436M74.202 41.437h4.732a2.608 2.608 0 0 0-.15-.825 2.713 2.713 0 0 0-.419-.764 1.994 1.994 0 0 0-.743-.578 2.438 2.438 0 0 0-1.058-.221 2.29 2.29 0 0 0-1.006.217 2.061 2.061 0 0 0-.733.568 2.896 2.896 0 0 0-.441.763 2.673 2.673 0 0 0-.182.84m-1.165.441c0-.685.152-1.313.454-1.885a3.487 3.487 0 0 1 1.266-1.36 3.39 3.39 0 0 1 1.822-.503c.872 0 1.599.25 2.178.752.58.502.964 1.175 1.153 2.02.073.376.109.624.109.744a.59.59 0 0 1-.178.428.584.584 0 0 1-.433.18h-5.206c.044.7.3 1.287.77 1.762.469.475 1.077.713 1.826.713.719 0 1.368-.224 1.946-.673a.491.491 0 0 1 .248-.072c.106 0 .208.045.304.134a.43.43 0 0 1 .144.328c0 .18-.1.348-.302.507-.2.16-.449.287-.743.384a6.733 6.733 0 0 1-.895.228 4.54 4.54 0 0 1-.804.083c-1.07 0-1.947-.35-2.632-1.049-.684-.7-1.027-1.606-1.027-2.721M82.257 41.437h4.733a2.608 2.608 0 0 0-.15-.825 2.713 2.713 0 0 0-.42-.764 1.994 1.994 0 0 0-.743-.578 2.438 2.438 0 0 0-1.057-.221 2.29 2.29 0 0 0-1.006.217 2.061 2.061 0 0 0-.733.568 2.896 2.896 0 0 0-.441.763 2.673 2.673 0 0 0-.183.84m-1.164.441c0-.685.151-1.313.453-1.885a3.487 3.487 0 0 1 1.267-1.36 3.39 3.39 0 0 1 1.822-.503c.872 0 1.598.25 2.177.752.58.502.964 1.175 1.153 2.02.073.376.11.624.11.744a.59.59 0 0 1-.179.428.584.584 0 0 1-.433.18h-5.206c.044.7.3 1.287.77 1.762.47.475 1.078.713 1.826.713.72 0 1.369-.224 1.947-.673a.491.491 0 0 1 .247-.072c.106 0 .208.045.304.134a.43.43 0 0 1 .145.328c0 .18-.101.348-.302.507-.201.16-.45.287-.743.384a6.733 6.733 0 0 1-.895.228 4.54 4.54 0 0 1-.805.083c-1.07 0-1.946-.35-2.632-1.049-.684-.7-1.026-1.606-1.026-2.721M91.287 43.532c.19.325.477.6.863.823.385.223.782.335 1.19.335.678 0 1.215-.26 1.615-.783.399-.522.598-1.19.598-2.006 0-.816-.2-1.483-.598-2-.4-.517-.937-.775-1.615-.775-.408 0-.805.112-1.19.335-.386.224-.673.495-.863.816v3.255zm-1.065 4.263v-9.04c0-.145.054-.27.16-.374a.54.54 0 0 1 .39-.157c.134 0 .253.053.358.16.104.107.157.23.157.371v.626c.26-.378.595-.681 1.006-.909a2.67 2.67 0 0 1 1.319-.342c.911 0 1.649.338 2.21 1.015.564.678.845 1.596.845 2.756 0 1.148-.281 2.066-.844 2.754-.562.687-1.3 1.031-2.211 1.031-.469 0-.904-.11-1.306-.329a2.948 2.948 0 0 1-1.02-.936v3.375a.515.515 0 0 1-.16.378.523.523 0 0 1-.382.16.487.487 0 0 1-.37-.164.533.533 0 0 1-.152-.375zM99.442 41.437h4.733a2.608 2.608 0 0 0-.15-.825 2.713 2.713 0 0 0-.419-.764 1.994 1.994 0 0 0-.744-.578 2.438 2.438 0 0 0-1.057-.221 2.29 2.29 0 0 0-1.006.217 2.061 2.061 0 0 0-.733.568 2.896 2.896 0 0 0-.441.763 2.673 2.673 0 0 0-.183.84m-1.164.441c0-.685.151-1.313.453-1.885a3.487 3.487 0 0 1 1.267-1.36 3.39 3.39 0 0 1 1.822-.503c.872 0 1.599.25 2.178.752s.964 1.175 1.152 2.02c.074.376.11.624.11.744a.59.59 0 0 1-.179.428.584.584 0 0 1-.433.18h-5.206c.044.7.3 1.287.77 1.762.47.475 1.078.713 1.827.713.719 0 1.368-.224 1.946-.673a.491.491 0 0 1 .247-.072c.106 0 .208.045.304.134a.43.43 0 0 1 .145.328c0 .18-.1.348-.302.507-.201.16-.45.287-.743.384a6.733 6.733 0 0 1-.895.228 4.54 4.54 0 0 1-.805.083c-1.07 0-1.946-.35-2.631-1.049-.685-.7-1.027-1.606-1.027-2.721M106.87 45.094v-6.388c0-.148.059-.275.175-.38a.611.611 0 0 1 .425-.16c.147 0 .277.055.392.163.113.108.17.234.17.377v.73c.678-.87 1.37-1.306 2.073-1.306.142 0 .265.052.37.155.103.103.155.23.155.377a.6.6 0 0 1-.176.432.6.6 0 0 1-.432.188c-.85.05-1.514.419-1.99 1.107v4.705a.518.518 0 0 1-.174.391.596.596 0 0 1-.418.163h-.015a.603.603 0 0 1-.396-.17.515.515 0 0 1-.159-.384"/>
        <g>
            <use fill="url(#a)" xlink:href="#b"/>
            <use fill="#FFF" xlink:href="#b"/>
        </g>
    </g>
</svg>
