<?xml version="1.0" encoding="UTF-8" standalone="no"?>
<svg width="101px" height="101px" viewBox="0 0 101 101" version="1.1" xmlns="http://www.w3.org/2000/svg" xmlns:xlink="http://www.w3.org/1999/xlink" xmlns:sketch="http://www.bohemiancoding.com/sketch/ns">
    <!-- Generator: Sketch 3.2.2 (9983) - http://www.bohemiancoding.com/sketch -->
    <title>Imported Layers 5</title>
    <desc>Created with Sketch.</desc>
    <defs></defs>
    <g id="Page-1" stroke="none" stroke-width="1" fill="none" fill-rule="evenodd" sketch:type="MSPage">
        <g id="Explore" sketch:type="MSArtboardGroup" transform="translate(-360.000000, -267.000000)">
            <g id="Imported-Layers-5" sketch:type="MSLayerGroup" transform="translate(360.000000, 267.000000)">
                <path d="M100.384001,50.1926669 C100.385334,36.3426669 94.7613339,23.7733336 85.6833339,14.7013336 C76.6120005,5.62533357 64.0453339,2.3699852e-07 50.1993339,2.3699852e-07 L50.1946672,2.3699852e-07 C36.3420005,-0.00133309633 23.7733339,5.62333357 14.7006672,14.7013336 C5.6226672,23.7733336 -0.00199946681,36.3426669 5.33187558e-07,50.1926669 C-0.00199946681,64.0420002 5.6226672,76.6113336 14.7006672,85.6833336 C23.7713339,94.7600002 36.3400005,100.384667 50.1866672,100.384667 L50.1920005,100.384667 C64.0413339,100.386 76.6106672,94.7613336 85.6833339,85.6833336 C94.7613339,76.6113336 100.385334,64.0420002 100.384001,50.1926669 L97.3840005,50.1926669" id="Fill-2" fill-opacity="0.6" fill="#1C1B19" sketch:type="MSShapeGroup"></path>
                <path d="M36,38.8644068 C38.209139,38.8644068 40,37.1038994 40,34.9322034 C40,32.7605074 38.209139,31 36,31 C33.790861,31 32,32.7605074 32,34.9322034 C32,37.1038994 33.790861,38.8644068 36,38.8644068 Z M50,38.8644068 C52.209139,38.8644068 54,37.1038994 54,34.9322034 C54,32.7605074 52.209139,31 50,31 C47.790861,31 46,32.7605074 46,34.9322034 C46,37.1038994 47.790861,38.8644068 50,38.8644068 Z M64,38.8644068 C66.209139,38.8644068 68,37.1038994 68,34.9322034 C68,32.7605074 66.209139,31 64,31 C61.790861,31 60,32.7605074 60,34.9322034 C60,37.1038994 61.790861,38.8644068 64,38.8644068 Z" id="Oval-13" fill="#FFFFFF" sketch:type="MSShapeGroup"></path>
                <text id="More" sketch:type="MSTextLayer" font-family="CytiaPro-Light" font-size="12" font-weight="260" sketch:alignment="middle" fill="#FFFFFF">
                    <tspan x="34.7216797" y="70">More</tspan>
                    <tspan x="28.0712891" y="85">like this</tspan>
                </text>
                <path d="M2.686,49.932 C2.686,75.9953333 23.814,97.1233333 49.878,97.124 C75.9413333,97.1233333 97.07,75.9953333 97.07,49.932 L96.4033333,49.932 C96.4033333,62.7806667 91.196,74.41 82.776,82.8306667 C74.356,91.25 62.7266667,96.4573333 49.878,96.4573333 C37.0286667,96.4573333 25.4,91.25 16.9793333,82.8306667 C8.55933333,74.41 3.35266667,62.7806667 3.352,49.932 C3.35266667,37.0833333 8.55933333,25.4533333 16.9793333,17.0333333 C25.4,8.61333333 37.0286667,3.406 49.878,3.406 C62.7266667,3.406 74.356,8.61333333 82.776,17.0333333 C91.196,25.4533333 96.4033333,37.0833333 96.4033333,49.932 L97.07,49.932 C97.07,23.868 75.9413333,2.73933333 49.878,2.73933333 C23.814,2.73933333 2.686,23.868 2.686,49.932 Z" id="Fill-4" fill-opacity="0.6" fill="#FFFFFF" sketch:type="MSShapeGroup"></path>
            </g>
        </g>
    </g>
</svg>