<?xml version="1.0" encoding="utf-8"?>
<!-- Generator: Adobe Illustrator 18.0.0, SVG Export Plug-In . SVG Version: 6.00 Build 0)  -->
<!DOCTYPE svg PUBLIC "-//W3C//DTD SVG 1.1//EN" "http://www.w3.org/Graphics/SVG/1.1/DTD/svg11.dtd">
<svg version="1.1" id="Layer_1" xmlns:sketch="http://www.bohemiancoding.com/sketch/ns"
	 xmlns="http://www.w3.org/2000/svg" xmlns:xlink="http://www.w3.org/1999/xlink" x="0px" y="0px" viewBox="0 0 150 150"
	 enable-background="new 0 0 150 150" xml:space="preserve">
<title>Slice 2</title>
<desc>Created with Sketch.</desc>
<g id="Page-1" sketch:type="MSPage" opacity="0.6">
	<g id="Imported-Layers-3" sketch:type="MSLayerGroup">
		<path id="Fill-2" sketch:type="MSShapeGroup" fill-opacity="0.6" d="M149,74.9c0-20.5-8.3-39-21.7-52.5C113.9,9,95.3,0.7,74.8,0.7
			h0c-20.5,0-39,8.3-52.5,21.7C8.9,35.9,0.6,54.4,0.6,74.9c0,20.5,8.3,39,21.7,52.5c13.4,13.4,32,21.7,52.4,21.7h0
			c20.5,0,39-8.3,52.5-21.7C140.7,113.9,149,95.4,149,74.9h-4.4"/>
		<path id="Fill-1" sketch:type="MSShapeGroup" fill="#FFFFFF" d="M55.4,107.9v-66l52,33L55.4,107.9"/>
		<path id="Fill-4" sketch:type="MSShapeGroup" fill="#FFFFFF" d="M5.1,74.9c0,38.5,31.2,69.7,69.7,69.7c38.5,0,69.7-31.2,69.7-69.7
			h-1c0,19-7.7,36.2-20.1,48.6C111,136,93.8,143.7,74.8,143.7c-19,0-36.2-7.7-48.6-20.1C13.8,111.1,6.1,93.9,6.1,74.9
			c0-19,7.7-36.2,20.1-48.6C38.6,13.8,55.8,6.1,74.8,6.1c19,0,36.2,7.7,48.6,20.1s20.1,29.6,20.1,48.6h1c0-38.5-31.2-69.7-69.7-69.7
			C36.3,5.2,5.1,36.4,5.1,74.9z"/>
	</g>
</g>
</svg>
