<?xml version="1.0" encoding="UTF-8" standalone="no"?>
<svg width="30px" height="30px" viewBox="0 0 30 30" version="1.1" xmlns="http://www.w3.org/2000/svg" xmlns:xlink="http://www.w3.org/1999/xlink" xmlns:sketch="http://www.bohemiancoding.com/sketch/ns">
    <!-- Generator: Sketch 3.0.4 (8054) - http://www.bohemiancoding.com/sketch -->
    <title>Slice 2</title>
    <desc>Created with Sketch.</desc>
    <defs></defs>
    <g id="Page-1" stroke="none" stroke-width="1" fill="none" fill-rule="evenodd" sketch:type="MSPage">
        <path d="M29.9157617,14.9580795 C29.9161591,10.8305961 28.2401326,7.08476828 25.5347684,4.38119212 C22.8313909,1.67642391 19.0863578,7.0628698e-08 14.9600664,7.0628698e-08 L14.9586757,7.0628698e-08 C10.8303975,-0.000397280365 7.08476837,1.67582789 4.38099354,4.38119212 C1.6756293,7.08476828 -0.000595867593,10.8305961 1.58896954e-07,14.9580795 C-0.000595867593,19.0853643 1.6756293,22.8311921 4.38099354,25.5347683 C7.08417234,28.2397352 10.8298015,29.9159603 14.9562915,29.9159603 L14.957881,29.9159603 C19.0851657,29.9163577 22.8309935,28.2401325 25.5347684,25.5347683 C28.2401326,22.8311921 29.9161591,19.0853643 29.9157617,14.9580795 L29.021722,14.9580795 L29.9157617,14.9580795 Z M11.0334437,21.6117219 L11.0334437,8.30423841 L21.5227152,14.9580795 L11.0334437,21.6117219 Z" id="Fill-2" fill="#FFFFFF" sketch:type="MSShapeGroup"></path>
    </g>
</svg>