<?xml version="1.0" encoding="UTF-8"?> <svg xmlns="http://www.w3.org/2000/svg" width="839" height="160" viewBox="0 0 839 160"> <path fill="#FFFFFF" fill-rule="evenodd" d="M735.882114,44.4342377 C735.882114,38.3661953 740.823734,30.9648634 751.660711,30.9648634 C760.946554,30.9648634 765.348421,35.0907122 765.348421,42.2558315 C765.348421,49.457695 760.527329,56.6910534 749.732274,56.6910534 C738.937219,56.6910534 735.882114,50.5022801 735.882114,44.4342377 L735.882114,44.4342377 Z M835.867378,89.2149208 C832.455932,92.7003707 826.916916,97.5978478 819.769122,102.358846 C819.790083,103.156721 819.816285,103.114727 819.816285,103.949345 C819.816285,120.851678 808.497198,144.514944 787.127182,144.514944 C767.863774,144.514944 765.804329,129.029887 765.804329,129.029887 L765.348421,127.077196 C759.311575,137.407565 750.004771,144.514944 737.428008,144.514944 C726.978814,144.514944 720.344572,138.788098 720.344572,128.305502 C720.344572,119.056461 724.756919,101.408746 727.953513,88.1440898 C729.038259,83.6298022 731.19203,73.5461435 733.550173,71.3309931 C735.855912,69.157836 740.121531,67.0949116 745.948765,67.0949116 C752.520123,67.0949116 752.525363,70.7693317 750.937547,76.8163774 C747.746194,88.9577114 743.962684,101.681703 741.761751,112.783701 C740.310183,120.101047 739.497933,127.581116 744.72253,127.581116 C755.197926,127.581116 761.507268,104.878449 768.246317,90.0915324 C772.941642,79.7821594 783.044975,67.0949116 799.043665,67.0949116 C805.604543,67.0949116 813.889485,72.7377711 817.777801,85.9604344 C824.951796,80.8897346 828.866314,76.3334536 833.346786,71.9451462 C834.766912,70.5593649 837.449954,70.5173715 837.911102,73.6196319 C838.230762,75.7455464 838.440375,79.0577737 838.450855,81.2046849 C838.461336,84.4906663 838.021149,87.020767 835.867378,89.2149208 L835.867378,89.2149208 Z M802.931981,109.476723 C799.017463,110.600046 795.155349,111.277189 791.612894,111.277189 C785.041536,111.277189 781.609128,108.98855 779.968908,105.818051 C779.816939,107.329812 779.685931,108.852072 779.685931,110.437322 C779.685931,121.775532 784.721876,126.058856 789.920272,126.058856 C794.191131,126.058856 800.222736,119.555133 802.931981,109.476723 L802.931981,109.476723 Z M803.786153,92.9050884 C802.628042,87.2517306 799.693464,82.5799678 794.935256,82.5799678 C794.02344,82.5799678 793.111625,82.7794364 792.215531,83.1206325 C786.131522,85.5142548 782.389935,95.0677471 792.430384,95.0677471 C796.392064,95.0677471 800.165093,94.2436272 803.786153,92.9050884 L803.786153,92.9050884 Z M697.868848,116.048686 C688.66685,116.048686 683.21692,122.699387 683.21692,131.371018 C683.21692,140.04265 687.786477,144.514944 696.338676,144.514944 C704.896115,144.514944 711.472713,139.003314 711.472713,129.113874 C711.472713,119.219186 705.058564,116.048686 697.868848,116.048686 L697.868848,116.048686 Z M675.660381,115.035596 C676.037684,116.977789 676.210615,120.956662 676.226336,122.935599 C676.252537,126.106099 675.272598,129.066632 672.972098,131.155802 C667.495966,136.126767 656.281686,144.514944 642.987,144.514944 C624.095654,144.514944 634.052258,97.0939274 634.052258,97.0939274 L630.027694,97.0939274 C630.027694,97.0939274 611.34072,134.384043 609.249833,138.788098 C607.164187,143.192152 602.662754,144.514944 598.622469,144.514944 C594.587424,144.514944 590.73579,141.249959 590.73579,129.434074 C590.73579,117.618188 593.130616,97.3406384 593.130616,97.3406384 L588.954082,97.3406384 C588.954082,97.3406384 586.103349,102.054395 583.236895,108.064696 C580.370442,114.069748 569.051355,134.546767 566.777057,138.872084 C564.497519,143.192152 561.955965,144.514944 558.319184,144.514944 C546.172127,144.514944 549.84035,130.987828 549.279636,124.883042 L549.206271,124.883042 C549.206271,124.883042 541.93271,144.91913 530.419732,144.91913 C520.714663,144.91913 516.307556,133.785637 516.307556,130.940586 L516.218471,130.940586 C514.986996,132.31062 504.16574,144.677668 491.216914,144.677668 C474.66799,144.677668 472.01639,126.457793 472.01639,126.457793 C472.01639,126.457793 457.453546,144.514944 440.595444,144.514944 C432.677323,144.514944 424.444784,140.394344 418.402698,133.313212 C405.170895,140.147633 391.939093,144.514944 383.517902,144.514944 C378.466235,144.514944 366.434466,142.819461 366.434466,128.305502 C366.434466,115.980447 374.184896,87.7346544 374.184896,87.7346544 L373.943841,87.7346544 C373.27308,88.4642892 370.328022,90.5902037 365.51217,90.5902037 C360.455263,90.5902037 356.94425,89.099439 354.863844,87.5614317 C351.431436,97.603097 348.916083,104.400774 343.880138,114.31121 C336.370762,129.087628 326.309352,144.514944 308.371744,144.514944 C290.753795,144.514944 285.424392,125.52869 283.291583,110.216856 L283.281102,110.201109 C267.874568,129.444572 253.437492,145.239329 236.773281,145.239329 C219.532635,145.239329 214.83207,134.016601 214.397124,131.848693 C214.213713,130.945835 213.915015,129.428825 214.281837,127.560119 L214.255635,127.55487 L214.245155,127.544372 C197.366091,140.257866 185.454849,144.504445 172.883326,144.504445 C166.296246,144.504445 160.74151,142.394278 156.240077,138.982317 L156.088107,139.034809 C143.851965,147.155277 130.573,152.257472 118.431183,152.257472 C106.284127,152.257472 97.6795246,141.732883 93.15189,118.384567 C88.6190151,95.0415013 85.8416466,89.7765821 84.0546982,87.4197041 C82.2625095,85.062826 80.4545999,84.5169122 78.8196207,84.5169122 L73.746993,84.5169122 C73.746993,84.5169122 72.4788361,101.13579 69.7224289,116.169417 C66.9607814,131.197795 61.1807108,160 38.6421038,160 C16.1087371,160 0,133.328959 0,100.967816 C0,68.606673 14.311308,47.7307175 26.164907,34.3138348 C38.018506,20.8969522 61.909115,5.1599357 93.15189,5.1599357 C124.389425,5.1599357 141.698195,24.440143 141.698195,42.6600177 C141.698195,60.8798924 120.548272,81.9343197 89.8504898,81.9343197 C89.8504898,81.9343197 103.726851,85.5929924 109.616969,103.308947 C115.501846,121.019652 114.710558,134.195072 123.744866,134.195072 C130.038487,134.195072 138.98895,129.45507 146.021457,124.909288 L146.058139,124.846298 C144.4284,120.494734 143.495624,115.765231 143.495624,110.88875 C143.495624,93.4457531 151.371821,81.1416948 158.027025,74.4752469 C164.682229,67.8087989 173.564567,67.1788983 176.341936,67.1788983 C179.119304,67.1788983 197.51806,68.7326531 197.51806,87.3357173 C197.51806,99.9809718 184.045203,115.550015 171.568006,126.783242 C171.552285,126.777993 171.541805,126.767495 171.526084,126.762245 L171.541805,126.804239 C171.552285,126.79899 171.557526,126.788491 171.568006,126.783242 C172.62131,127.166432 173.758459,127.418392 175.052818,127.418392 C184.212893,127.418392 193.876039,124.431613 206.604771,113.271874 C217.971021,103.308947 223.840177,91.209606 227.02629,84.4906663 C229.227223,79.8503986 231.213304,72.8375053 233.482362,70.044946 C235.547047,67.5095961 240.488667,66.0293297 245.393604,67.9400282 C250.298542,69.8559759 249.921239,72.5120567 249.921239,73.7823562 C249.921239,75.0526558 249.051346,76.6326564 247.903716,79.4514616 C249.77451,86.4643548 262.901506,109.261507 262.901506,116.14842 C262.901506,116.14842 274.110546,104.080575 282.128232,92.2909353 C282.175395,89.1991733 282.364046,80.5117942 283.820855,69.6722548 C284.386809,65.4939142 285.22526,60.8221515 286.184238,56.2343755 C285.644485,56.2448739 285.104733,56.2606214 284.837476,56.2606214 C282.044387,56.2606214 275.928936,56.0244086 274.34636,56.0559037 C272.763784,56.0821495 264.295431,57.2107214 262.817661,54.412913 C261.345132,51.6151045 261.135519,49.2214822 262.822901,48.2136413 C264.505043,47.2110495 267.313854,45.8252682 271.883411,45.1323775 C276.452968,44.4394869 285.136175,43.1219448 285.136175,43.1219448 L289.412274,42.791247 C290.182601,39.9829402 290.937206,37.5158295 291.607967,35.6838686 C302.245812,6.49322529 312.532556,0 318.454115,0 C324.380915,0 333.834448,7.12312588 333.834448,23.6265214 C333.834448,28.8651947 332.644896,34.0566254 330.365358,39.610249 L344.755271,38.4921755 C348.182439,37.9725075 351.090815,36.7546996 352.049793,43.095699 C353.003531,49.4419474 348.606904,50.0613497 347.904702,50.1715823 C347.438313,50.2398215 333.687719,51.9510515 323.14944,53.2948394 C322.022772,55.1058036 320.83322,56.9640104 319.533621,58.9009547 C314.838296,65.913848 300.605593,86.2701355 300.547949,86.805551 C299.981995,91.7975132 299.850987,99.8602408 300.542709,106.936124 C301.538369,117.193005 302.748883,126.452544 310.792771,126.452544 C324.003612,126.452544 341.045126,80.6220268 344.07927,72.5802959 L344.07927,72.5750468 C344.08451,72.5645484 344.24172,72.2443489 344.440852,71.7299301 C345.871458,68.0187658 348.711711,67.2996293 351.903064,67.2996293 C354.96341,67.2996293 357.447321,68.638168 359.003695,70.4858764 C361.477125,73.409665 364.883332,75.3308618 368.949818,75.3308618 C374.57792,75.3308618 381.987729,67.0949116 391.420301,67.0949116 C397.17417,67.0949116 397.876373,69.4255438 397.876373,72.1656114 C397.876373,74.9056789 386.772139,111.870345 386.772139,120.825432 C386.772139,127.880319 390.162625,127.581116 390.812424,127.581116 C395.219532,127.581116 402.969962,124.499852 411.286346,120.053804 C410.175399,116.389882 409.410312,112.484499 409.410312,108.180178 C409.410312,83.7347856 425.676259,67.1788983 441.01991,67.1788983 C457.202011,67.1788983 462.190794,80.9212296 462.190794,87.7661494 C462.190794,88.8264821 462.049305,89.6715987 461.844933,90.4274794 C460.188992,102.159378 448.015734,114.56842 433.143712,124.568092 C436.104491,126.73075 439.128155,127.418392 440.480157,127.418392 C450.159024,127.418392 469.029408,113.208884 477.366754,96.9731964 C488.229933,75.8347823 500.21978,71.2522555 503.494979,69.6355106 C507.152721,67.8297956 511.502185,67.2576359 514.40008,67.2576359 C520.882353,67.2576359 517.559992,73.3886684 525.996904,73.3886684 C530.634585,73.3886684 535.413755,71.7194318 535.413755,80.8057478 C535.413755,87.3777107 531.577842,105.135658 531.069531,108.993799 C530.55598,112.846691 528.182116,126.452544 533.883582,126.452544 C539.590288,126.452544 556.909539,73.7981037 557.999525,70.8848135 C559.084271,67.9767724 560.991746,67.5148453 561.861639,67.3783669 C562.736772,67.2418884 568.574486,67.2996293 569.95269,67.2996293 C571.336134,67.2996293 573.395579,68.0817558 573.537067,70.4806273 C573.678556,72.8847479 574.103021,81.1626915 570.560567,99.5137955 L571.44618,100.484892 C571.44618,100.484892 590.190797,74.4752469 596.631148,69.2733178 C603.076739,64.0713887 611.083945,68.5279354 611.083945,74.6747154 C611.083945,80.8267445 608.605274,99.5137955 608.605274,99.5137955 L612.414985,100.484892 C612.414985,100.484892 632.076658,74.1760441 637.835767,69.3153112 C643.594876,64.4493291 652.566301,67.8927857 652.566301,74.6747154 C652.566301,81.4618943 648.866636,106.133001 648.866636,115.403038 C648.866636,124.673075 651.696408,125.239986 652.72875,125.239986 C653.661527,125.239986 658.943767,126.011614 671.054142,113.166891 C672.353741,111.791608 675.062985,112.006824 675.660381,115.035596 L675.660381,115.035596 Z M98.5441771,65.6041468 C107.66233,62.9375677 121.088024,57.1897247 121.088024,43.3056658 C121.088024,29.4216069 105.927785,23.2223352 91.700322,23.2223352 C77.472859,23.2223352 62.5012709,26.9334996 49.6729729,36.9331715 C36.8446748,46.9380926 20.6101701,70.8165743 20.6101701,105.240642 C20.6101701,139.664709 36.7031862,141.9376 40.7382309,141.9376 C44.7732757,141.9376 56.600673,133.659657 56.600673,82.6587054 C56.600673,82.6639546 50.1026789,79.5406975 47.0580542,77.0945835 C44.0134296,74.6537187 43.3321883,71.5777041 43.9191039,69.1945802 C44.7261128,65.8981005 44.7470741,64.3338473 49.9192678,64.9584987 C55.0862212,65.5831502 58.9326145,66.129064 58.9326145,66.129064 C58.9326145,66.129064 59.336119,57.1739772 61.1702302,51.4891244 C63.0095818,45.8042715 66.9188589,41.4369607 72.6989295,41.2899839 C78.479,41.1430071 79.4903814,45.1428759 79.385575,47.7412158 C79.2755284,50.3395558 76.8859434,68.2234835 76.8859434,68.2234835 C76.8859434,68.2234835 89.426024,68.270726 98.5441771,65.6041468 L98.5441771,65.6041468 Z M163.167777,112.248286 C163.162536,112.227289 163.162536,112.206292 163.157296,112.185296 C167.003689,109.11978 170.818641,105.88629 174.26153,102.379843 C178.039799,98.5322004 182.703682,92.5743906 182.703682,88.9314655 C182.703682,85.2832912 181.084423,82.5799678 176.441502,82.5799678 C173.066737,82.5799678 163.05773,84.7163807 163.05773,110.311341 C163.05773,110.899249 163.110133,111.544897 163.157296,112.185296 C163.141575,112.201043 163.131095,112.211542 163.115374,112.22204 L163.141575,112.216791 L163.167777,112.248286 L163.167777,112.248286 Z M245.194472,118.951478 C245.194472,112.012073 237.339236,97.4141268 237.339236,97.4141268 C230.296248,110.720777 225.627125,116.484367 219.553597,123.408025 L219.558837,123.413274 L218.809472,123.297792 C224.54762,123.801713 226.628026,131.61248 234.567107,131.61248 C242.773445,131.61248 245.194472,125.890883 245.194472,118.951478 L245.194472,118.951478 Z M305.479088,41.5419442 L315.168436,40.7913126 C318.323107,34.1406122 320.953747,27.6473869 320.953747,24.3561563 C320.953747,18.4613366 318.171138,18.0623995 316.682888,18.0623995 C315.503816,18.0623995 312.144773,18.4035957 306.401384,38.0249992 C306.207493,38.6811456 305.877353,39.9619435 305.479088,41.5419442 L305.479088,41.5419442 Z M302.355859,55.5362357 C301.616974,59.2316525 300.925252,63.0320528 300.437903,66.4860077 C300.437903,66.4860077 307.182192,56.2711197 307.695743,55.3367672 C307.716704,55.2895246 307.753386,55.2265346 307.779588,55.179292 C306.17081,55.3052721 304.362901,55.4260031 302.355859,55.5362357 L302.355859,55.5362357 Z M426.142647,110.977986 C437.115873,103.398182 446.13446,95.0362521 446.13446,90.0337915 C446.13446,86.4276106 444.834861,81.8765789 439.861799,81.8765789 C436.691407,81.8765789 425.802026,84.4591713 425.802026,107.020111 C425.802026,108.48463 425.990678,109.707687 426.142647,110.977986 L426.142647,110.977986 Z M516.658657,82.5799678 C510.061097,82.5799678 505.093276,86.7110659 499.187438,95.1622322 C494.057166,102.500574 491.793349,113.844034 491.793349,117.723172 C491.793349,121.995998 492.757568,129.029887 497.898319,129.029887 C503.893243,129.029887 508.195544,121.807027 511.748479,106.290476 C514.143305,95.8183787 516.658657,82.5799678 516.658657,82.5799678 L516.658657,82.5799678 Z M584.117269,56.2606214 C586.910358,56.2606214 646.477051,50.2765657 647.179254,50.1715823 C647.886697,50.0613497 651.885059,48.0036744 651.324345,43.095699 C650.784593,38.3609462 647.456991,37.9725075 644.035063,38.4921755 C644.035063,38.4921755 600.928209,41.0432729 584.415967,43.1219448 C570.964071,44.8174272 563.784836,47.2110495 562.097453,48.2136413 C560.415311,49.2214822 559.524457,52.5757029 562.097453,54.412913 C564.602325,56.2028805 581.324179,56.2606214 584.117269,56.2606214 L584.117269,56.2606214 Z"></path> </svg> 