<?xml version="1.0" encoding="UTF-8" standalone="no"?>
<svg width="20px" height="15px" viewBox="0 0 20 15" version="1.1" xmlns="http://www.w3.org/2000/svg" xmlns:xlink="http://www.w3.org/1999/xlink" xmlns:sketch="http://www.bohemiancoding.com/sketch/ns">
    <!-- Generator: Sketch 3.2.2 (9983) - http://www.bohemiancoding.com/sketch -->
    <title>Fill 5</title>
    <desc>Created with Sketch.</desc>
    <defs></defs>
    <g id="Page-1" stroke="none" stroke-width="1" fill="none" fill-rule="evenodd" sketch:type="MSPage">
        <path d="M7.93522933,10.2663194 L7.93430907,4.27402798 L13.3383915,7.28061323 L7.93522933,10.2663194 L7.93522933,10.2663194 Z M19.8002839,3.23594178 C19.8002839,3.23594178 19.6048754,1.76628532 19.0051789,1.11909697 C18.2446522,0.269673994 17.3921778,0.265456423 17.0012433,0.215743371 C14.2025356,0 10.0043272,0 10.0043272,0 L9.99563366,0 C9.99563366,0 5.79752313,0 2.99871751,0.215743371 C2.60776347,0.265456423 1.75560233,0.269673994 0.994801508,1.11909697 C0.395144158,1.76628532 0.20000979,3.23594178 0.20000979,3.23594178 C0.20000979,3.23594178 0,4.96180523 0,6.68764781 L0,8.30562913 C0,10.0314508 0.20000979,11.7572934 0.20000979,11.7572934 C0.20000979,11.7572934 0.395144158,13.2269707 0.994801508,13.8741591 C1.75560233,14.7236029 2.75496598,14.6967316 3.20007832,14.7857599 C4.8000979,14.9493683 10,15 10,15 C10,15 14.2025356,14.9932561 17.0012433,14.7775336 C17.3921778,14.7277996 18.2446522,14.7236029 19.0051789,13.8741591 C19.6048754,13.2269707 19.8002839,11.7572934 19.8002839,11.7572934 C19.8002839,11.7572934 20,10.0314508 20,8.30562913 L20,6.68764781 C20,4.96180523 19.8002839,3.23594178 19.8002839,3.23594178 L19.8002839,3.23594178 Z" id="Fill-5" fill="#EE2737" sketch:type="MSShapeGroup"></path>
    </g>
</svg>