<?xml version="1.0" encoding="UTF-8"?> <svg xmlns="http://www.w3.org/2000/svg" width="24" height="24" viewBox="0 0 24 24"> <g fill="#000000" fill-rule="evenodd"> <path d="M19.5 3L24 3 24 0 12 0 12 3 16.5 3 16.5 12 19.5 12 19.5 3zM0 12L3 12 3 24 0 24 0 12zM9 12L12 12 12 24 9 24 9 12zM6 21L3 17.25 3 12 6 16.5 9 12 9 17.25 6 21z" opacity=".8"></path> <path d="M7.125 3L3 3 3 6 7.125 6C7.95342712 6 8.625 5.32842712 8.625 4.5 8.625 3.67157288 7.95342712 3 7.125 3zM6.25 9L3 9 3 12 0 12 0 8.25 0 0 7.5 0C9.98528137 0 12 2.01471863 12 4.5 12 6.21073267 11.0453865 7.69850342 9.63978869 8.45968304L12 12 8.25 12 6.25 9zM19.125 15L15 15 15 18 19.125 18C19.9534271 18 20.625 17.3284271 20.625 16.5 20.625 15.6715729 19.9534271 15 19.125 15zM15 21L15 24 12 24 12 20.25 12 12 19.5 12C21.9852814 12 24 14.0147186 24 16.5 24 18.9852814 21.9852814 21 19.5 21L15 21z"></path> </g> </svg> 