<?xml version="1.0" encoding="UTF-8"?> <svg xmlns="http://www.w3.org/2000/svg" width="14" height="24" viewBox="0 0 14 24"> <path fill="#EE8208" fill-rule="evenodd" d="M7.00036043,3.63014185 C8.42418706,3.63014185 9.58302892,4.78015004 9.58302892,6.19477499 C9.58302892,7.60754689 8.42418706,8.7582963 7.00036043,8.7582963 C5.57690702,8.7582963 4.41769195,7.60754689 4.41769195,6.19477499 C4.41769195,4.78015004 5.57690702,3.63014185 7.00036043,3.63014185 M7.00036043,12.3869557 C3.56041023,12.3869557 0.762394965,9.60959143 0.762394965,6.19477499 C0.762394965,2.77847611 3.56041023,0 7.00036043,0 C10.4403106,0 13.2379527,2.77847611 13.2379527,6.19477499 C13.2379527,9.60959143 10.4403106,12.3869557 7.00036043,12.3869557 Z M9.52357529,17.4394312 L13.010551,20.9024272 C13.7256366,21.6102956 13.7256366,22.7595626 13.010551,23.4685428 C12.2973314,24.1771524 11.1403556,24.1771524 10.4278825,23.4685428 L6.99950203,20.0655859 L3.57373411,23.4685428 C3.21693771,23.822477 2.74929557,23.9996294 2.280907,23.9996294 C1.81363808,23.9996294 1.34674237,23.822477 0.989572755,23.4685428 C0.275606742,22.7595626 0.275606742,21.6110368 0.988826319,20.9024272 L4.47542877,17.4394312 C3.20611439,17.1522071 1.98121295,16.6526225 0.853721407,15.9495721 C0.000171866415,15.4155206 -0.25660211,14.2959026 0.281205012,13.4475723 C0.818265698,12.5981303 1.94575724,12.3427788 2.80079966,12.8772009 C5.35435714,14.4715725 8.64390049,14.4723138 11.1989508,12.8772009 C12.05362,12.3427788 13.1814848,12.5981303 13.7189187,13.4475723 C14.2567258,14.2951614 13.9995786,15.4155206 13.1456559,15.9495721 C12.0181643,16.6533638 10.7932629,17.1522071 9.52357529,17.4394312 Z"></path> </svg> 