<?xml version="1.0" encoding="UTF-8"?> <svg xmlns="http://www.w3.org/2000/svg" viewBox="0 0 416 416"> <title>VK-Logotype</title> <path d="M480,72c114.88,0,208,93.12,208,208S594.88,488,480,488,272,394.88,272,280,365.12,72,480,72Z" transform="translate(-272 -72)" fill="#4d75a3" fill-rule="evenodd"></path> <path d="M477,362.78h17s5.13-.57,7.75-3.39c2.41-2.59,2.33-7.46,2.33-7.46s-0.33-23,10.24-26.38,23.74,22.11,38,31.75a32.08,32.08,0,0,0,18.88,5.47l37.93,0s19.84-1.51,10.43-17.1c-0.77-1.27-5.48-11.54-28.2-32.63-23.78-22.07-20.59-18.5,8.05-56.68,17.45-23.25,24.42-37.45,22.24-43.53-2.08-5.79-14.81-4.79-14.81-4.79l-42.79,0a10.33,10.33,0,0,0-5.51,1.1c-2.29,1.37-3.77,4.94-3.77,4.94S548,232.42,539,247.72c-19,32.28-26.62,34-29.72,32-7.23-4.67-5.42-18.77-5.42-28.79,0-31.29,4.75-44.34-9.24-47.71-4.64-1.12-8.06-1.86-19.93-2-15.24-.16-28.13,0-35.43,3.62-4.86,2.38-8.61,7.68-6.32,8,2.82,0.38,9.21,1.73,12.6,6.34,4.38,6,4.22,19.32,4.22,19.32s2.52,36.83-5.87,41.41c-5.75,3.14-13.65-3.27-30.6-32.56A264.26,264.26,0,0,1,398,215.44a12.67,12.67,0,0,0-3.52-4.76,17.63,17.63,0,0,0-6.56-2.65H347.35s-6.09.17-8.33,2.82c-2,2.36-.16,7.23-0.16,7.23S370.63,293,406.6,330.44C439.59,364.78,477,362.78,477,362.78Z" transform="translate(-272 -72)" fill="#fff" fill-rule="evenodd"></path> </svg> 